<svg width="20" height="20" viewBox="0 0 20 20" fill="none" xmlns="http://www.w3.org/2000/svg">
<path d="M1.92189 17.7109H18.0821C18.875 17.7109 19.5235 17.0664 19.5235 16.2734V3.73047C19.5235 2.9375 18.8789 2.29297 18.0821 2.29297H1.92189C1.12892 2.29297 0.484393 2.9375 0.484393 3.73047V16.2734C0.480486 17.0664 1.12892 17.7109 1.92189 17.7109ZM18.0781 16.7539H1.92189C1.65627 16.7539 1.44142 16.5391 1.44142 16.2734V6.86328H18.5625V16.2734C18.5625 16.5391 18.3438 16.7539 18.0781 16.7539ZM1.92189 3.24609H18.0821C18.3477 3.24609 18.5664 3.46094 18.5664 3.72656V5.90234H1.43752V3.73047C1.43752 3.46094 1.65627 3.24609 1.92189 3.24609Z" fill="#C7E8FE"/>
<path d="M2.76953 5.05469C2.89453 5.05469 3.01953 5.00391 3.10547 4.91406C3.19531 4.82422 3.24609 4.70313 3.24609 4.57422C3.24609 4.44922 3.19531 4.32422 3.10547 4.23828C2.92969 4.05859 2.60938 4.05859 2.42969 4.23828C2.33984 4.32813 2.28906 4.44922 2.28906 4.57422C2.28906 4.69922 2.33984 4.82422 2.42969 4.91406C2.51953 5.00391 2.64063 5.05469 2.76953 5.05469Z" fill="#C7E8FE"/>
<path d="M4.57422 5.05469C4.69922 5.05469 4.82422 5.00391 4.91406 4.91406C5.0039 4.82422 5.05469 4.70313 5.05469 4.57422C5.05469 4.44922 5.0039 4.32422 4.91406 4.23828C4.73828 4.05859 4.41406 4.05859 4.23828 4.23828C4.14844 4.32813 4.09766 4.44922 4.09766 4.57422C4.09766 4.69922 4.14844 4.82422 4.23828 4.91406C4.32812 5.00391 4.44922 5.05469 4.57422 5.05469Z" fill="#C7E8FE"/>
<path d="M6.38281 5.05469C6.50781 5.05469 6.63281 5.00391 6.71875 4.91406C6.80859 4.82422 6.85938 4.70313 6.85938 4.57422C6.85938 4.44531 6.80859 4.32422 6.71875 4.23828C6.54297 4.05859 6.21875 4.05859 6.04297 4.23828C5.95312 4.32813 5.90234 4.44922 5.90234 4.57422C5.90234 4.69922 5.95312 4.82422 6.04297 4.91406C6.13281 5.00391 6.25781 5.05469 6.38281 5.05469Z" fill="#C7E8FE"/>
<path d="M16.7695 8.10938H10C9.73438 8.10938 9.51953 8.32422 9.51953 8.58984C9.51953 8.85547 9.73438 9.07031 10 9.07031H16.7695C17.0352 9.07031 17.25 8.85547 17.25 8.58984C17.25 8.32031 17.0352 8.10938 16.7695 8.10938Z" fill="#C7E8FE"/>
<path d="M10 11.2344H13.207C13.4727 11.2344 13.6875 11.0195 13.6875 10.7539C13.6875 10.4883 13.4727 10.2734 13.207 10.2734H10C9.73438 10.2734 9.51953 10.4883 9.51953 10.7539C9.52344 11.0195 9.73438 11.2344 10 11.2344Z" fill="#C7E8FE"/>
<path d="M16.7695 12.4453H10C9.73438 12.4453 9.51953 12.6602 9.51953 12.9258C9.51953 13.1914 9.73438 13.4062 10 13.4062H16.7695C17.0352 13.4062 17.25 13.1914 17.25 12.9258C17.25 12.6602 17.0352 12.4453 16.7695 12.4453Z" fill="#C7E8FE"/>
<path d="M16.7695 14.6133H3.23047C2.96484 14.6133 2.75 14.8281 2.75 15.0937C2.75 15.3594 2.96484 15.5742 3.23047 15.5742H16.7695C17.0352 15.5742 17.25 15.3594 17.25 15.0937C17.25 14.8281 17.0352 14.6133 16.7695 14.6133Z" fill="#C7E8FE"/>
<path d="M3.41016 13.3516H8.10547C8.37109 13.3516 8.58594 13.1367 8.58594 12.8711V8.58594C8.58594 8.32031 8.37109 8.10547 8.10547 8.10547H3.41016C3.14453 8.10547 2.92969 8.32031 2.92969 8.58594V12.8711C2.93359 13.1367 3.14453 13.3516 3.41016 13.3516ZM3.89063 9.06641H7.62891V12.3945H3.89063V9.06641Z" fill="#C7E8FE"/>
</svg>
