<svg width="20" height="20" viewBox="0 0 20 20" fill="none" xmlns="http://www.w3.org/2000/svg">
<path d="M2.46875 15.9336H17.5273C18.6523 15.9336 19.5664 15.0195 19.5664 13.8945V3.07422C19.5664 1.94922 18.6523 1.03516 17.5273 1.03516H2.46875C1.34375 1.03516 0.429688 1.94922 0.429688 3.07422V13.8906C0.429688 15.0195 1.34375 15.9336 2.46875 15.9336ZM1.38672 3.07422C1.38672 2.48047 1.87109 1.99219 2.46875 1.99219H17.5273C18.125 1.99219 18.6094 2.47656 18.6094 3.07422V13.8906C18.6094 14.4883 18.125 14.9727 17.5273 14.9727H2.46875C1.87109 14.9727 1.38672 14.4883 1.38672 13.8906V3.07422Z" fill="#C7E8FE"/>
<path d="M10 16.6719C9.73437 16.6719 9.51953 16.8867 9.51953 17.1523V18.0117H6.96875C6.70312 18.0117 6.48828 18.2266 6.48828 18.4922C6.48828 18.7578 6.70312 18.9727 6.96875 18.9727H13.0312C13.2969 18.9727 13.5117 18.7578 13.5117 18.4922C13.5117 18.2266 13.2969 18.0117 13.0312 18.0117H10.4805V17.1523C10.4766 16.8828 10.2656 16.6719 10 16.6719Z" fill="#C7E8FE"/>
<path d="M5.60144 13.1836C5.61316 13.1836 5.62488 13.1836 5.6366 13.1836C5.89831 13.1641 6.09753 12.9375 6.08191 12.6719C6.05456 12.3047 6.08191 11.668 6.54675 11.5469C8.40222 11.082 9.12878 10.4688 9.41003 10.0039C9.57019 10.0352 9.73816 10.0547 9.91394 10.0586C9.92566 10.0586 9.93738 10.0586 9.9491 10.0586H9.97644C9.98816 10.0586 9.99988 10.0586 10.0116 10.0586C10.2225 10.0547 10.4218 10.0273 10.6093 9.98047C10.8983 10.4492 11.6288 11.0859 13.4608 11.5469C13.9257 11.6641 13.953 12.3008 13.9257 12.6719C13.9061 12.9375 14.1053 13.1641 14.371 13.1836C14.3827 13.1836 14.3944 13.1836 14.4061 13.1836C14.6561 13.1836 14.8671 12.9922 14.8827 12.7383C14.9608 11.6211 14.5194 10.8281 13.6952 10.6211C12.2811 10.2656 11.6835 9.82422 11.4764 9.55859C11.5663 9.48438 11.6561 9.40234 11.7382 9.3125C12.6561 8.28125 12.5155 6.53906 12.496 6.33984C12.3983 4.45313 11.0975 3.78906 10.0116 3.78906C9.99206 3.78906 9.97644 3.78906 9.96081 3.78906C9.9491 3.78906 9.92956 3.78906 9.91003 3.78906C8.8241 3.78906 7.52331 4.45703 7.42956 6.33594C7.41003 6.53516 7.27331 8.27344 8.18738 9.30859C8.28503 9.42188 8.39441 9.51953 8.50769 9.60547C8.28503 9.85938 7.68347 10.2734 6.30456 10.6211C5.48425 10.8281 5.03894 11.6211 5.12097 12.7383C5.1405 12.9883 5.35144 13.1836 5.60144 13.1836ZM8.38269 6.42187C8.38269 6.41016 8.38269 6.40234 8.3866 6.39063C8.453 4.90234 9.47644 4.74219 9.91003 4.74219H9.94128C9.953 4.74219 9.96472 4.74219 9.98035 4.74219H10.0116C10.4491 4.74219 11.4686 4.90234 11.535 6.39063C11.535 6.40234 11.535 6.41016 11.5389 6.42187C11.5819 6.83203 11.578 8.03906 11.0155 8.67188C10.7616 8.95703 10.4218 9.09766 9.96863 9.10156C9.96081 9.10156 9.95691 9.10156 9.9491 9.10156C9.49988 9.09766 9.15613 8.95703 8.90222 8.67188C8.34753 8.04688 8.33972 6.83594 8.38269 6.42187Z" fill="#C7E8FE"/>
</svg>
