<svg width="20" height="20" viewBox="0 0 20 20" fill="none" xmlns="http://www.w3.org/2000/svg">
<path d="M9.80078 5.10937H15.2305C15.4961 5.10937 15.7109 4.89453 15.7109 4.62891C15.7109 4.36328 15.4961 4.14844 15.2305 4.14844H9.80078C9.53516 4.14844 9.32031 4.36328 9.32031 4.62891C9.32031 4.89453 9.53906 5.10937 9.80078 5.10937Z" fill="#C7E8FE"/>
<path d="M5.36719 5.25C5.70805 5.25 5.98438 4.97368 5.98438 4.63281C5.98438 4.29195 5.70805 4.01562 5.36719 4.01562C5.02632 4.01562 4.75 4.29195 4.75 4.63281C4.75 4.97368 5.02632 5.25 5.36719 5.25Z" fill="#C7E8FE"/>
<path d="M15.2305 9.53125H9.80078C9.53516 9.53125 9.32031 9.74609 9.32031 10.0117C9.32031 10.2773 9.53516 10.4922 9.80078 10.4922H15.2305C15.4961 10.4922 15.7109 10.2773 15.7109 10.0117C15.7109 9.74609 15.4961 9.53125 15.2305 9.53125Z" fill="#C7E8FE"/>
<path d="M5.36719 10.625C5.70805 10.625 5.98438 10.3487 5.98438 10.0078C5.98438 9.66695 5.70805 9.39062 5.36719 9.39062C5.02632 9.39062 4.75 9.66695 4.75 10.0078C4.75 10.3487 5.02632 10.625 5.36719 10.625Z" fill="#C7E8FE"/>
<path d="M15.2305 14.9102H9.80078C9.53516 14.9102 9.32031 15.125 9.32031 15.3906C9.32031 15.6563 9.53516 15.8711 9.80078 15.8711H15.2305C15.4961 15.8711 15.7109 15.6563 15.7109 15.3906C15.7109 15.125 15.4961 14.9102 15.2305 14.9102Z" fill="#C7E8FE"/>
<path d="M5.36719 16.0039C5.70805 16.0039 5.98438 15.7276 5.98438 15.3867C5.98438 15.0459 5.70805 14.7695 5.36719 14.7695C5.02632 14.7695 4.75 15.0459 4.75 15.3867C4.75 15.7276 5.02632 16.0039 5.36719 16.0039Z" fill="#C7E8FE"/>
<path d="M19.543 18.0586V1.94141C19.543 1.67578 19.3281 1.46094 19.0625 1.46094H0.933594C0.667969 1.46094 0.457031 1.67578 0.457031 1.94141V18.0547C0.457031 18.3203 0.671875 18.5352 0.933594 18.5352H19.0664C19.332 18.5352 19.543 18.3203 19.543 18.0586ZM1.41406 7.80078H18.5898V12.2227H1.41406V7.80078ZM18.5859 2.42187V6.84375H1.41406V2.42187H18.5859ZM1.41406 17.5781V13.1758H18.5898V17.5781H1.41406Z" fill="#C7E8FE"/>
</svg>
