<svg width="56.693" height="56.693" xmlns="http://www.w3.org/2000/svg">

 <g>
  <title>Layer 1</title>
  <path fill="#b2bcc6" id="svg_1" d="m3.428,30.50529c6.19,0 12.009,2.418 16.382,6.816c4.381,4.398 6.793,10.256 6.793,16.492l9.539,0c0,-18.113 -14.676,-32.848 -32.714,-32.848l0,9.54zm0.015,-16.911c22.061,0 40.01,18.047 40.01,40.231l9.539,0c0,-27.445 -22.229,-49.77 -49.549,-49.77l0,9.539zm13.191,33.567c0,3.648 -2.959,6.607 -6.607,6.607s-6.607,-2.958 -6.607,-6.607c0,-3.65 2.958,-6.607 6.606,-6.607s6.608,2.957 6.608,6.607z"/>
  <path id="svg_2" d="m42.11454,29.36099" opacity="NaN" fill-opacity="null" stroke-opacity="null" stroke-dasharray="null" stroke-width="null" stroke="null" fill="null"/>
  <path id="svg_3" d="m33.99864,14.2886l-2.69445,-0.08577l2.69445,0.08577z" opacity="undefined" stroke-opacity="null" stroke-dasharray="null" stroke-width="null" stroke="null" fill="#FFAFCC"/>
 </g>
</svg>