<svg width="12" height="12" viewBox="0 0 12 12" fill="#6D7F92" xmlns="http://www.w3.org/2000/svg">
<g clip-path="url(#clip0)">
<path d="M7.00781 5.39062C7.2667 5.39062 7.47656 5.18076 7.47656 4.92187C7.47656 4.66299 7.2667 4.45312 7.00781 4.45312C6.74893 4.45312 6.53906 4.66299 6.53906 4.92187C6.53906 5.18076 6.74893 5.39062 7.00781 5.39062Z" />
<path d="M7.00781 7.42968C7.2667 7.42968 7.47656 7.21982 7.47656 6.96094C7.47656 6.70205 7.2667 6.49219 7.00781 6.49219C6.74893 6.49219 6.53906 6.70205 6.53906 6.96094C6.53906 7.21982 6.74893 7.42968 7.00781 7.42968Z" />
<path d="M9.04687 5.39062C9.30576 5.39062 9.51562 5.18076 9.51562 4.92187C9.51562 4.66299 9.30576 4.45312 9.04687 4.45312C8.78799 4.45312 8.57812 4.66299 8.57812 4.92187C8.57812 5.18076 8.78799 5.39062 9.04687 5.39062Z" />
<path d="M11.5312 5.85936C11.7901 5.85936 12 5.6495 12 5.39061V2.81249C12 1.77862 11.1589 0.937498 10.125 0.937498H9.51561V0.468749C9.51561 0.209859 9.30575 0 9.04686 0C8.78797 0 8.57811 0.209859 8.57811 0.468749V0.937498H6.4453V0.468749C6.4453 0.209859 6.23544 0 5.97655 0C5.71766 0 5.5078 0.209859 5.5078 0.468749V0.937498H3.39843V0.468749C3.39843 0.209859 3.18857 0 2.92968 0C2.67079 0 2.46093 0.209859 2.46093 0.468749V0.937498H1.875C0.841123 0.937498 0 1.77862 0 2.81249V10.125C0 11.1589 0.841123 12 1.875 12H7.78124C7.7972 12 7.81297 11.9992 7.82851 11.9976C7.84395 11.9991 7.85942 12 7.87487 12C7.99986 12 8.12251 11.95 8.21263 11.8564L11.8689 8.05951C11.9993 7.92409 12.0362 7.72386 11.9626 7.55089C11.889 7.37792 11.7192 7.26561 11.5312 7.26561H9.28123C8.24736 7.26561 7.40624 8.10673 7.40624 9.14061V11.0625H1.875C1.35806 11.0625 0.937498 10.6419 0.937498 10.125V2.81249C0.937498 2.29556 1.35806 1.875 1.875 1.875H2.46093V2.34375C2.46093 2.60264 2.67079 2.81249 2.92968 2.81249C3.18857 2.81249 3.39843 2.60264 3.39843 2.34375V1.875H5.5078V2.34375C5.5078 2.60264 5.71766 2.81249 5.97655 2.81249C6.23544 2.81249 6.4453 2.60264 6.4453 2.34375V1.875H8.57811V2.34375C8.57811 2.60264 8.78797 2.81249 9.04686 2.81249C9.30575 2.81249 9.51561 2.60264 9.51561 2.34375V1.875H10.125C10.6419 1.875 11.0625 2.29556 11.0625 2.81249V5.39061C11.0625 5.6495 11.2723 5.85936 11.5312 5.85936ZM8.34373 9.14061C8.34373 8.62367 8.7643 8.20311 9.28123 8.20311H10.4291L8.34373 10.3687V9.14061Z" />
<path d="M2.92969 5.39062C3.18857 5.39062 3.39844 5.18076 3.39844 4.92187C3.39844 4.66299 3.18857 4.45312 2.92969 4.45312C2.6708 4.45312 2.46094 4.66299 2.46094 4.92187C2.46094 5.18076 2.6708 5.39062 2.92969 5.39062Z" />
<path d="M4.96875 7.42968C5.22763 7.42968 5.4375 7.21982 5.4375 6.96094C5.4375 6.70205 5.22763 6.49219 4.96875 6.49219C4.70987 6.49219 4.5 6.70205 4.5 6.96094C4.5 7.21982 4.70987 7.42968 4.96875 7.42968Z" />
<path d="M2.92969 9.46875C3.18857 9.46875 3.39844 9.25888 3.39844 9C3.39844 8.74112 3.18857 8.53125 2.92969 8.53125C2.6708 8.53125 2.46094 8.74112 2.46094 9C2.46094 9.25888 2.6708 9.46875 2.92969 9.46875Z" />
<path d="M2.92969 7.42968C3.18857 7.42968 3.39844 7.21982 3.39844 6.96094C3.39844 6.70205 3.18857 6.49219 2.92969 6.49219C2.6708 6.49219 2.46094 6.70205 2.46094 6.96094C2.46094 7.21982 2.6708 7.42968 2.92969 7.42968Z" />
<path d="M4.96875 9.46875C5.22763 9.46875 5.4375 9.25888 5.4375 9C5.4375 8.74112 5.22763 8.53125 4.96875 8.53125C4.70987 8.53125 4.5 8.74112 4.5 9C4.5 9.25888 4.70987 9.46875 4.96875 9.46875Z" />
<path d="M4.96875 5.39062C5.22763 5.39062 5.4375 5.18076 5.4375 4.92187C5.4375 4.66299 5.22763 4.45312 4.96875 4.45312C4.70987 4.45312 4.5 4.66299 4.5 4.92187C4.5 5.18076 4.70987 5.39062 4.96875 5.39062Z" />
</g>
<defs>
<clipPath id="clip0">
<rect width="12" height="12" fill="white"/>
</clipPath>
</defs>
</svg>
