<svg width="34" height="34" viewBox="0 0 34 34" fill="none" xmlns="http://www.w3.org/2000/svg">
    <rect x="0.5" y="0.5" width="33" height="33" rx="16.5" fill="#29394D" fill-opacity="0.7" stroke="white"/>
    <path d="M13.8175 12.9162C13.7708 12.8685 13.7151 12.8305 13.6537 12.8043C13.5922 12.7781 13.5263 12.7643 13.4595 12.7637C13.3927 12.763 13.3265 12.7756 13.2646 12.8005C13.2026 12.8255 13.1462 12.8624 13.0986 12.9092C12.5596 13.4451 12.132 14.0824 11.8405 14.7844C11.549 15.4864 11.3995 16.2392 11.4004 16.9993C11.3995 17.7885 11.5609 18.5695 11.8744 19.2938C12.188 20.0181 12.6471 20.6703 13.2232 21.2098C13.3202 21.2994 13.4482 21.3477 13.5802 21.3444C13.7123 21.3412 13.8378 21.2866 13.9302 21.1923C14.1514 20.9711 14.1241 20.619 13.9113 20.4153C13.4489 19.9746 13.081 19.4446 12.8299 18.8573C12.5787 18.2701 12.4496 17.6379 12.4504 16.9993C12.4504 15.7071 12.9691 14.5353 13.8105 13.6827C14.0135 13.4762 14.0345 13.1332 13.8175 12.9162ZM15.0502 14.1503C14.958 14.0554 14.832 14.0009 14.6997 13.9988C14.5674 13.9968 14.4397 14.0472 14.3446 14.1391C13.9659 14.5128 13.6652 14.9582 13.4602 15.4492C13.2552 15.9402 13.1499 16.4671 13.1504 16.9993C13.1496 17.5619 13.2671 18.1184 13.4954 18.6326C13.7237 19.1468 14.0576 19.6073 14.4755 19.9841C14.5716 20.0689 14.6966 20.1136 14.8247 20.1088C14.9528 20.1039 15.0742 20.05 15.1636 19.9582C15.3932 19.7286 15.3505 19.3674 15.1349 19.1644C14.8394 18.8865 14.6039 18.5511 14.4432 18.1787C14.2825 17.8063 14.1998 17.4049 14.2004 16.9993C14.2004 16.1943 14.5203 15.4635 15.0404 14.9273C15.2406 14.7215 15.2735 14.3729 15.0502 14.1503ZM18.9506 14.1503C19.0428 14.0554 19.1688 14.0009 19.3011 13.9988C19.4333 13.9968 19.561 14.0472 19.6562 14.1391C20.0349 14.5128 20.3356 14.9582 20.5406 15.4492C20.7456 15.9402 20.8509 16.4671 20.8504 16.9993C20.8512 17.5619 20.7337 18.1184 20.5054 18.6326C20.2771 19.1468 19.9432 19.6073 19.5253 19.9841C19.4292 20.0689 19.3042 20.1136 19.1761 20.1088C19.048 20.1039 18.9266 20.05 18.8372 19.9582C18.6076 19.7286 18.6503 19.3674 18.8659 19.1644C19.1614 18.8865 19.3968 18.5511 19.5576 18.1787C19.7183 17.8063 19.801 17.4049 19.8004 16.9993C19.8004 16.1943 19.4805 15.4635 18.9604 14.9273C18.7602 14.7215 18.7273 14.3729 18.9506 14.1503ZM20.1833 12.9169C20.23 12.8692 20.2857 12.8312 20.3471 12.805C20.4086 12.7788 20.4745 12.765 20.5413 12.7644C20.6081 12.7637 20.6743 12.7763 20.7362 12.8012C20.7981 12.8262 20.8545 12.8631 20.9022 12.9099C21.4411 13.4457 21.8687 14.0829 22.1601 14.7848C22.4516 15.4866 22.6012 16.2393 22.6004 16.9993C22.6013 17.7885 22.4399 18.5695 22.1264 19.2938C21.8128 20.0181 21.3537 20.6703 20.7776 21.2098C20.6806 21.2994 20.5526 21.3477 20.4205 21.3444C20.2885 21.3412 20.163 21.2866 20.0706 21.1923C19.8494 20.9711 19.8767 20.619 20.0902 20.4153C20.5524 19.9746 20.9202 19.4445 21.1712 18.8573C21.4223 18.27 21.5513 17.6379 21.5504 16.9993C21.5504 15.7071 21.0317 14.5353 20.1903 13.6827C19.9873 13.4762 19.9663 13.1332 20.1833 12.9162V12.9169ZM17.0004 15.9493C16.7219 15.9493 16.4548 16.0599 16.2579 16.2568C16.061 16.4537 15.9504 16.7208 15.9504 16.9993C15.9504 17.2777 16.061 17.5448 16.2579 17.7417C16.4548 17.9386 16.7219 18.0493 17.0004 18.0493C17.2789 18.0493 17.5459 17.9386 17.7429 17.7417C17.9398 17.5448 18.0504 17.2777 18.0504 16.9993C18.0504 16.7208 17.9398 16.4537 17.7429 16.2568C17.5459 16.0599 17.2789 15.9493 17.0004 15.9493Z" fill="white"/>
</svg>
