<svg width="12" height="12" viewBox="0 0 12 12" fill="none" xmlns="http://www.w3.org/2000/svg">
<path fill-rule="evenodd" clip-rule="evenodd" d="M1.26041 1.07151C1.42094 0.983007 1.61652 0.99008 1.77038 1.08995L8.77038 5.63377C8.91349 5.72667 9 5.88667 9 6.05846C9 6.23025 8.91349 6.39025 8.77038 6.48314L1.77038 11.027C1.61652 11.1268 1.42094 11.1339 1.26041 11.0454C1.09987 10.9569 1 10.787 1 10.6023V1.51464C1 1.32995 1.09987 1.16 1.26041 1.07151ZM2 2.43939V9.67753L7.57537 6.05846L2 2.43939Z" fill="white"/>
<path fill-rule="evenodd" clip-rule="evenodd" d="M10.5 2.01953C10.7761 2.01953 11 2.24557 11 2.5244V9.59257C11 9.8714 10.7761 10.0974 10.5 10.0974C10.2239 10.0974 10 9.8714 10 9.59257V2.5244C10 2.24557 10.2239 2.01953 10.5 2.01953Z" fill="white"/>
</svg>
