<?xml version="1.0" standalone="no"?>
<!DOCTYPE svg PUBLIC "-//W3C//DTD SVG 1.1//EN" "http://www.w3.org/Graphics/SVG/1.1/DTD/svg11.dtd" >
<svg xmlns="http://www.w3.org/2000/svg">
<metadata>Generated by IcoMoon</metadata>
<defs>
<font id="tamtam-sb" horiz-adv-x="1024">
<font-face units-per-em="1024" ascent="960" descent="-64" />
<missing-glyph horiz-adv-x="1024" />
<glyph unicode="&#x20;" horiz-adv-x="512" d="" />
<glyph unicode="&#xe900;" glyph-name="trash" d="M938.874 803.488h-213.055v34.737c0 62.106-50.523 112.632-112.628 112.632h-202.528c-62.106 0-112.632-50.526-112.632-112.632v-34.737h-213.053c-15.789 0-28.421-12.631-28.421-28.421s12.631-28.421 28.421-28.421h51.369v-667.789c0-83.791 68.211-152.001 152-152.001h447.156c83.791 0 152.001 68.21 152.001 152.001v667.789h51.369c15.789 0 28.42 12.631 28.42 28.421s-12.631 28.421-28.42 28.421zM354.874 838.225c0 30.737 25.053 55.789 55.79 55.789h202.528c30.736 0 55.788-25.053 55.788-55.789v-34.737h-314.106v34.737zM830.665 78.858c0-52.421-42.74-95.157-95.161-95.157h-447.156c-52.421 0-95.158 42.736-95.158 95.157v667.789h637.684v-667.789h-0.209zM511.929 85.597c15.789 0 28.42 12.635 28.42 28.424v502.315c0 15.789-12.631 28.421-28.42 28.421s-28.42-12.632-28.42-28.421v-502.106c0-15.789 12.631-28.633 28.42-28.633zM326.498 116.967c15.789 0 28.421 12.635 28.421 28.424v439.788c0 15.789-12.632 28.421-28.421 28.421s-28.421-12.632-28.421-28.421v-439.788c0-15.789 12.842-28.424 28.421-28.424zM697.431 116.967c15.789 0 28.42 12.635 28.42 28.424v439.788c0 15.789-12.631 28.421-28.42 28.421s-28.42-12.632-28.42-28.421v-439.788c0-15.789 12.631-28.424 28.42-28.424z" />
<glyph unicode="&#xe901;" glyph-name="check" d="M387.31-73.134c-31.832 0-61.937 14.891-81.291 40.431l-261.384 345.191c-33.997 44.896-25.146 108.822 19.749 142.833 44.968 34.026 108.851 25.117 142.863-19.749l171.915-227.006 432.377 694.243c29.769 47.762 92.628 62.376 140.491 32.651 47.804-29.755 62.404-92.657 32.623-140.464l-510.771-820.080c-17.744-28.51-48.376-46.447-81.92-47.966-1.565-0.060-3.101-0.085-4.652-0.085z" />
<glyph unicode="&#xe902;" glyph-name="tools" d="M3.24 856.923l68.293-119.505c2.304-4.038 6.159-6.96 10.668-8.091l63.714-15.928 218.524-218.524 24.145 24.138-221.944 221.937c-2.184 2.191-4.923 3.743-7.922 4.495l-61.22 15.36-58.144 101.807 49.85 49.85 101.849-58.2 15.367-61.22c0.744-3.006 2.304-5.752 4.488-7.936l221.944-221.944 24.138 24.145-218.524 218.524-15.928 63.678c-1.131 4.516-4.052 8.379-8.091 10.689l-119.512 68.286c-6.665 3.792-15.051 2.669-20.486-2.746l-68.286-68.293c-5.492-5.401-6.686-13.8-2.922-20.521zM713.029 614.387l-375.588-375.595-24.145 24.145 375.595 375.588zM271.705 225.504c-3.090 5.141-8.638 8.28-14.636 8.28h-102.432c-5.991 0-11.546-3.139-14.629-8.28l-51.219-85.359c-3.252-5.408-3.252-12.171 0-17.586l51.219-85.359c3.083-5.134 8.638-8.28 14.629-8.28h102.432c5.998 0 11.546 3.146 14.636 8.28l51.212 85.359c3.252 5.415 3.252 12.178 0 17.586zM247.412 63.067h-83.111l-40.973 68.286 40.973 68.293h83.111l40.973-68.293zM820.455 541.087c112.756-0.379 204.478 90.724 204.857 203.48 0.056 17.164-2.051 34.259-6.272 50.896-2.275 9.151-11.539 14.72-20.69 12.445-3.006-0.751-5.745-2.304-7.936-4.488l-106.274-106.203-84.319 28.099-28.12 84.298 106.274 106.295c6.665 6.672 6.658 17.48-0.014 24.145-2.198 2.198-4.965 3.757-7.992 4.502-109.35 27.692-220.434-38.501-248.126-147.843-4.207-16.589-6.307-33.641-6.251-50.756 0.042-13.442 1.426-26.842 4.151-40.004l-373.889-373.882c-13.161 2.718-26.561 4.101-39.997 4.151-113.149 0-204.871-91.722-204.871-204.871 0-113.142 91.722-204.864 204.871-204.864 113.142 0 204.864 91.722 204.864 204.864-0.042 13.442-1.433 26.842-4.151 40.004l89.509 89.509 39.147-39.147c6.672-6.665 17.473-6.665 24.145 0l8.533 8.54c7.487 7.437 19.587 7.437 27.074 0 7.48-7.459 7.494-19.566 0.035-27.046-0.007-0.007-0.021-0.021-0.035-0.035l-8.533-8.533c-6.665-6.665-6.665-17.473 0-24.138l203.656-203.656c53.565-54.057 140.806-54.45 194.863-0.885 54.050 53.565 54.443 140.813 0.878 194.863-0.288 0.295-0.583 0.59-0.878 0.885l-203.656 203.649c-6.665 6.665-17.473 6.665-24.138 0l-8.533-8.533c-7.494-7.444-19.587-7.444-27.081 0-7.473 7.459-7.494 19.566-0.035 27.039 0.014 0.014 0.028 0.021 0.035 0.035l8.54 8.54c6.665 6.665 6.665 17.473 0 24.138l-39.147 39.147 89.509 89.509c13.161-2.718 26.561-4.109 39.997-4.151zM887.532-39.372c-12.403 0.021-24.7 2.261-36.309 6.623l133.334 133.341c20.121-53.523-6.953-113.219-60.476-133.341-11.679-4.389-24.061-6.637-36.548-6.623zM694.123 404.34c-18.906-22.551-15.942-56.164 6.609-75.063 19.819-16.61 48.705-16.596 68.503 0.049l191.59-191.759c2.079-2.086 4.024-4.284 5.906-6.517l-145.968-145.968c-2.24 1.875-4.439 3.821-6.524 5.906l-191.738 191.752c18.906 22.551 15.942 56.164-6.609 75.063-19.819 16.617-48.712 16.596-68.51-0.042l-27.313 27.313 146.734 146.516zM763.062 576.048l-387.289-387.212c-4.249-4.242-5.956-10.401-4.509-16.223 23.422-91.982-32.159-185.536-124.147-208.951-91.982-23.422-185.536 32.159-208.958 124.147-23.415 91.982 32.166 185.536 124.154 208.958 27.826 7.079 56.978 7.079 84.804 0 5.822-1.426 11.967 0.281 16.223 4.502l387.198 387.219c4.242 4.242 5.949 10.401 4.488 16.216-23.261 90.907 31.576 183.457 122.483 206.725 17.179 4.389 34.947 6.075 52.645 4.972l-90.057-90.092c-4.572-4.565-6.173-11.328-4.13-17.459l34.139-102.439c1.707-5.092 5.71-9.095 10.809-10.787l102.439-34.146c6.124-2.044 12.887-0.449 17.459 4.116l90.057 90.057c0.204-3.259 0.309-6.482 0.309-9.692 0.478-93.808-75.175-170.24-168.983-170.725-14.503-0.070-28.956 1.714-43.002 5.309-5.822 1.454-11.981-0.246-16.223-4.488h0.091zM883.761 92.213l-24.145-24.145-170.718 170.718 24.138 24.145z" />
<glyph unicode="&#xe903;" glyph-name="magnifier" d="M1015.029-20.919l-248.849 248.843c66.753 76.743 107.167 176.875 107.167 286.314 0 240.901-195.942 436.619-436.617 436.619-240.901 0-436.619-195.945-436.619-436.619 0-240.672 195.945-436.62 436.619-436.62 109.438 0 209.567 40.414 286.31 107.167l248.849-248.849c5.905-5.899 13.852-9.079 21.572-9.079 7.714 0 15.662 2.953 21.567 9.079 11.804 11.81 11.804 31.334 0 43.145zM61.188 514.238c0 207.070 168.472 375.315 375.315 375.315 207.069 0 375.312-168.471 375.312-375.315 0-206.846-168.243-375.544-375.312-375.544-206.843 0-375.315 168.471-375.315 375.544z" />
<glyph unicode="&#xe904;" glyph-name="settings" d="M971.587 331.4l-71.877-12.19c-7.487-24.174-17.113-47.49-28.877-69.738l42.354-59.25c17.967-25.242 15.187-59.683-6.845-81.503l-63.744-63.744c-11.981-11.981-27.809-18.609-44.709-18.609-13.261 0-25.884 4.061-36.576 11.764l-59.471 42.354c-23.099-12.193-47.273-22.248-72.302-29.735l-11.977-71.018c-5.136-30.59-31.445-52.834-62.464-52.834h-90.057c-31.015 0-57.328 22.244-62.46 52.834l-12.407 72.732c-23.958 7.487-47.275 17.325-69.521 29.306l-58.826-42.354c-10.695-7.704-23.53-11.768-36.793-11.768-16.899 0-32.942 6.632-44.707 18.613l-63.959 63.744c-21.819 21.819-24.813 56.257-6.845 81.499l42.782 60.113c-11.765 22.457-21.178 45.777-28.45 69.947l-71.019 11.981c-30.589 5.132-52.836 31.445-52.836 62.46v90.057c0 31.019 22.247 57.328 52.836 62.464l72.73 12.405c7.487 23.958 17.327 47.274 29.306 69.521l-42.14 58.612c-17.968 25.242-15.188 59.681 6.845 81.5l63.746 63.746c11.979 11.979 27.809 18.61 44.707 18.61 13.262 0 25.883-4.064 36.579-11.765l60.109-42.782c21.605 11.337 44.28 20.536 67.596 27.808l11.978 71.874c5.136 30.589 31.445 52.836 62.464 52.836h90.27c31.019 0 57.328-22.247 62.464-52.836l12.193-71.874c24.17-7.487 47.486-17.113 69.734-28.878l59.254 42.354c10.693 7.701 23.528 11.765 36.789 11.765 16.9 0 32.729-6.631 44.709-18.61l63.744-63.746c21.819-21.819 24.816-56.259 6.845-81.5l-42.354-59.467c11.768-22.461 21.606-45.777 28.881-69.735l71.873-11.981c30.59-5.132 52.834-31.445 52.834-62.46v-90.057c0.429-31.015-21.819-57.328-52.405-62.464zM966.664 483.921c0 2.781-1.922 5.132-4.703 5.561l-89.844 14.974c-11.339 1.926-20.322 10.268-23.103 21.177-8.129 31.445-20.535 61.607-37.222 89.629-5.774 9.84-5.344 22.033 1.284 31.445l52.838 74.441c1.497 2.139 1.284 5.348-0.642 7.273l-63.748 63.746c-1.497 1.497-2.993 1.711-4.064 1.711-1.28 0-2.351-0.428-3.206-1.070l-74.228-52.836c-9.196-6.631-21.606-7.059-31.445-1.284-28.022 16.685-58.183 29.092-89.628 37.22-11.126 2.781-19.468 11.979-21.177 23.103l-15.191 89.843c-0.425 2.781-2.781 4.706-5.561 4.706h-90.057c-2.781 0-5.132-1.925-5.561-4.706l-14.974-89.843c-1.926-11.337-10.268-20.322-21.177-23.103-30.59-7.914-60.109-20.107-87.703-35.937-4.492-2.567-9.626-3.851-14.546-3.851-5.776 0-11.765 1.712-16.685 5.348l-74.869 53.264c-1.069 0.642-2.139 1.070-3.209 1.070-0.855 0-2.567-0.214-4.064-1.711l-63.746-63.746c-1.925-1.925-2.139-4.92-0.642-7.273l52.622-73.799c6.632-9.412 7.059-21.819 1.284-31.659-16.685-27.808-29.52-57.97-37.648-89.414-2.995-10.91-11.979-19.251-23.103-21.177l-90.485-15.403c-2.781-0.425-4.706-2.781-4.706-5.561v-90.057c0-2.781 1.925-5.132 4.706-5.561l89.201-14.974c11.337-1.926 20.536-10.268 23.316-21.39 7.915-31.445 20.108-61.822 36.579-89.844 5.775-9.838 5.134-22.032-1.497-31.232l-53.264-74.866c-1.497-2.143-1.283-5.348 0.642-7.274l63.746-63.744c1.497-1.501 2.995-1.713 4.064-1.713 1.284 0 2.353 0.429 3.209 1.071l73.8 52.622c9.412 6.628 21.819 7.058 31.659 1.284 27.808-16.687 57.97-29.523 89.414-37.652 10.91-2.993 19.251-11.977 21.177-23.099l15.403-90.486c0.429-2.781 2.781-4.706 5.561-4.706h90.057c2.781 0 5.132 1.926 5.561 4.706l14.974 89.202c1.926 11.335 10.268 20.535 21.39 23.316 32.303 8.129 63.106 20.748 91.77 37.648 9.838 5.774 22.032 5.348 31.445-1.284l73.799-53.051c1.071-0.642 2.139-1.067 3.21-1.067 0.855 0 2.568 0.213 4.064 1.709l63.744 63.748c1.926 1.926 2.139 4.919 0.642 7.27l-52.834 74.228c-6.632 9.2-7.062 21.606-1.284 31.445 16.683 28.022 29.089 58.183 37.218 89.632 2.781 11.122 11.981 19.464 23.103 21.177l89.844 15.187c2.781 0.425 4.706 2.781 4.706 5.561v90.057h-0.217zM512.134 217.779c-121.93 0-220.971 99.040-220.971 220.971 0 121.929 99.041 220.97 220.971 220.97s220.971-99.041 220.971-220.97c0-121.931-99.040-220.971-220.971-220.971zM512.134 601.965c-90.057 0-163.215-73.157-163.215-163.214s73.158-163.214 163.215-163.214c90.057 0 163.214 73.157 163.214 163.214s-73.157 163.214-163.214 163.214z" />
<glyph unicode="&#xe905;" glyph-name="filter" d="M858.544 364.406h90.982c41.128 0 74.474 33.349 74.474 74.471 0 41.133-33.346 74.48-74.474 74.48h-90.982c10.386-22.764 16.516-47.861 16.516-74.48 0-26.608-6.129-51.705-16.516-74.471zM530.196 513.357h-455.733c-41.128 0-74.469-33.349-74.469-74.48 0-41.122 33.341-74.471 74.469-74.471h455.714c-10.382 22.766-16.512 47.863-16.512 74.471 0 26.619 6.149 51.716 16.531 74.48zM800.592 438.88c0 58.546-47.66 106.191-106.222 106.191s-106.22-47.645-106.22-106.191c0-58.576 47.658-106.244 106.22-106.244 58.562-0.002 106.222 47.669 106.222 106.244zM120.607 140.997h-46.128c-41.128 0-74.469-33.346-74.469-74.467 0-41.136 33.341-74.467 74.469-74.467h46.109c-10.383 22.747-16.505 47.843-16.505 74.467-0.002 26.624 6.142 51.705 16.524 74.467zM448.947-7.936h500.579c41.128 0 74.474 33.331 74.474 74.467 0 41.121-33.346 74.467-74.474 74.467h-500.579c10.378-22.762 16.508-47.843 16.508-74.467 0-26.617-6.13-51.719-16.508-74.467zM390.964 66.538c0 58.551-47.649 106.174-106.218 106.174-58.563 0-106.221-47.623-106.221-106.174 0-58.587 47.658-106.255 106.221-106.255 58.569 0 106.218 47.667 106.218 106.255zM195.071 885.714h-120.603c-41.128 0-74.469-33.337-74.469-74.471 0-41.122 33.341-74.471 74.469-74.471h120.584c-10.384 22.766-16.513 47.851-16.513 74.471s6.148 51.705 16.532 74.471zM523.416 736.772h426.11c41.128 0 74.474 33.349 74.474 74.471 0 41.135-33.346 74.471-74.474 74.471h-426.11c10.382-22.766 16.512-47.85 16.512-74.471s-6.13-51.705-16.512-74.471zM465.447 811.25c0 58.548-47.658 106.178-106.221 106.178-58.561 0-106.219-47.631-106.219-106.178 0-58.574 47.658-106.257 106.219-106.257 58.563 0 106.221 47.685 106.221 106.257z" />
<glyph unicode="&#xe906;" glyph-name="folder" horiz-adv-x="1061" d="M1047.347 560.695c-10.046 12.321-25.114 19.456-41.011 19.423h-19.953l34.395 94.351c4.795 13.216 4.144 27.798-1.818 40.531s-16.742 22.575-29.963 27.355l-563.957 205.318c-13.221 4.803-27.805 4.152-40.543-1.809s-22.582-16.744-27.362-29.971l-57.946-159.219h-157.983c-39.004 0-70.623-31.619-70.623-70.623v-105.933h-17.656c-15.854-0.015-30.87-7.128-40.921-19.387s-14.083-28.379-10.986-43.93l103.798-518.879c8.253-41.267 44.449-70.992 86.53-71.066h676.564c42.064 0.077 78.248 29.784 86.513 71.029l103.797 518.901c3.178 15.525-0.816 31.66-10.876 43.908zM390.312 903.869c3.317 9.153 13.418 13.893 22.579 10.593l564.081-205.265c9.143-3.318 13.883-13.409 10.595-22.564l-38.791-106.515h-37.445l31.089 85.399c1.602 4.406 1.386 9.268-0.603 13.514-1.986 4.246-5.581 7.527-9.988 9.121l-497.679 181.165c-4.403 1.596-9.264 1.376-13.506-0.611-4.239-1.987-7.519-5.578-9.114-9.983l-101.536-278.605h-37.483l117.8 323.751zM850.187 580.118l-32.132 68.75c-2.052 4.386-5.815 7.737-10.408 9.27s-9.615 1.111-13.886-1.166l-144.424-76.854h-60.965l-43.257 92.903c-2.044 4.397-5.808 7.76-10.405 9.299s-9.629 1.12-13.908-1.16l-169.211-90.044 87.061 238.987 464.538-169.088-29.433-80.897h-23.57zM811.205 580.118h-86.693l69.424 36.934 17.269-36.934zM549.424 580.118h-143.382l114.922 61.123 28.46-61.123zM105.895 686.051c0 19.502 15.809 35.311 35.311 35.311h145.13l-51.378-141.244h-129.063v105.933zM1023.62 523.743l-103.797-518.952c-4.933-24.766-26.661-42.602-51.909-42.624h-676.564c-25.246 0.066-46.953 17.902-51.908 42.657l-103.798 518.938c-1.012 5.171 0.339 10.522 3.683 14.596 3.344 4.070 8.332 6.437 13.602 6.448h953.408c5.27-0.011 10.262-2.377 13.608-6.455s4.692-9.435 3.675-14.607zM141.226 509.429h-35.311c-9.751 0-17.656-7.907-17.656-17.657s7.905-17.657 17.656-17.657h35.311c9.751 0 17.656 7.907 17.656 17.657s-7.905 17.657-17.656 17.657zM494.351 509.429h-282.49c-9.751 0-17.656-7.907-17.656-17.657s7.905-17.657 17.656-17.657h282.49c9.75 0 17.657 7.907 17.657 17.657s-7.907 17.657-17.657 17.657zM590.917 680.634c-8.192-22.529-0.234-47.753 19.405-61.499 19.643-13.746 46.065-12.586 64.428 2.827 18.359 15.413 24.079 41.237 13.945 62.962-8.795 19.737-28.763 32.087-50.348 31.14-21.588-0.947-40.397-15-47.429-35.431zM634.65 645.941c-9.161 3.329-13.89 13.451-10.565 22.614 3.321 9.163 13.444 13.899 22.608 10.581s13.904-13.435 10.591-22.602c-1.591-4.409-4.875-8.003-9.121-9.99s-9.106-2.204-13.513-0.603z" />
<glyph unicode="&#xe907;" glyph-name="plus-outline" d="M478.925 471.952v198.576c0 18.279 14.816 33.097 33.095 33.096s33.095-14.817 33.095-33.096v-198.577h198.581c18.278 0 33.095-14.816 33.095-33.095s-14.816-33.099-33.095-33.099l-198.577 0.004v-198.577c0-18.278-14.82-33.099-33.095-33.099-18.278 0-33.095 14.816-33.095 33.099v198.577h-198.579c-18.278-0.004-33.096 14.816-33.096 33.095s14.817 33.095 33.096 33.095h198.575zM512-21.943c-254.493 0-460.8 206.308-460.8 460.8 0 254.493 206.307 460.8 460.8 460.8 254.492 0 460.8-206.307 460.8-460.8 0-254.492-206.308-460.8-460.8-460.8zM512-73.143c282.77 0 512 229.23 512 512s-229.23 512-512 512c-282.77 0-512-229.23-512-512s229.23-512 512-512z" />
<glyph unicode="&#xe908;" glyph-name="check-outline" d="M443.392 202.553c-14.69 0-28.585 6.873-37.518 18.66l-120.639 159.319c-15.691 20.72-11.606 50.227 9.115 65.922 20.755 15.707 50.239 11.595 65.937-9.114l79.344-104.771 199.562 320.419c13.737 22.044 42.748 28.789 64.843 15.070 22.063-13.733 28.802-42.765 15.053-64.829l-235.741-378.498c-8.188-13.158-22.327-21.437-37.809-22.138-0.721-0.028-1.43-0.039-2.146-0.039zM512-21.943c-254.493 0-460.8 206.308-460.8 460.8 0 254.493 206.307 460.8 460.8 460.8 254.492 0 460.8-206.307 460.8-460.8 0-254.492-206.308-460.8-460.8-460.8zM512-73.143c282.77 0 512 229.23 512 512s-229.23 512-512 512c-282.77 0-512-229.23-512-512s229.23-512 512-512z" />
<glyph unicode="&#xe909;" glyph-name="close-outline" d="M465.203 438.865l-140.414 140.415c-12.925 12.925-12.925 33.881 0 46.805 12.925 12.925 33.879 12.925 46.805 0l140.418-140.415 140.414 140.416c12.926 12.926 33.879 12.926 46.805 0 12.922-12.925 12.922-33.881 0-46.805l-140.414-140.412 140.414-140.418c12.922-12.926 12.922-33.879 0-46.805-12.926-12.926-33.879-12.926-46.805 0l-140.414 140.418-140.418-140.418c-12.923-12.926-33.879-12.926-46.805 0s-12.925 33.879 0 46.805l140.414 140.414zM512-21.943c-254.493 0-460.8 206.308-460.8 460.8 0 254.493 206.307 460.8 460.8 460.8 254.492 0 460.8-206.307 460.8-460.8 0-254.492-206.308-460.8-460.8-460.8zM512-73.143c282.77 0 512 229.23 512 512s-229.23 512-512 512c-282.77 0-512-229.23-512-512s229.23-512 512-512z" />
<glyph unicode="&#xe90a;" glyph-name="close" d="M390.269 438.914l-365.094 365.094c-33.607 33.607-33.607 88.095 0 121.698 33.607 33.607 88.091 33.607 121.698 0l365.099-365.099 365.096 365.104c33.611 33.607 88.094 33.607 121.699 0s33.605-88.096 0-121.698l-365.098-365.094 365.098-365.099c33.605-33.605 33.605-88.094 0-121.699s-88.088-33.605-121.699 0l-365.096 365.098-365.099-365.098c-33.603-33.605-88.091-33.605-121.698 0-33.607 33.611-33.607 88.094 0 121.699l365.094 365.095z" />
<glyph unicode="&#xe90b;" glyph-name="three-dots" d="M102.401 336.457c56.554 0 102.401 45.844 102.401 102.4 0 56.552-45.846 102.4-102.401 102.4s-102.401-45.848-102.401-102.4c0-56.556 45.847-102.4 102.401-102.4zM512 336.457c56.556 0 102.4 45.844 102.4 102.4 0 56.552-45.844 102.4-102.4 102.4-56.552 0-102.4-45.848-102.4-102.4 0-56.556 45.848-102.4 102.4-102.4zM921.6 336.457c56.556 0 102.4 45.844 102.4 102.4 0 56.552-45.844 102.4-102.4 102.4-56.552 0-102.4-45.848-102.4-102.4 0-56.556 45.848-102.4 102.4-102.4z" />
<glyph unicode="&#xe90c;" glyph-name="plus" d="M968.402 510.274h-384.99v384.99c0 17.538-23.815 55.566-71.443 55.566s-71.442-38.030-71.442-55.566v-384.992h-384.99c-17.536 0.002-55.566-23.813-55.566-71.438s38.030-71.44 55.566-71.44h384.992v-384.996c0-17.533 23.813-55.563 71.442-55.563s71.44 38.030 71.44 55.563v384.996h384.996c17.533 0 55.563 23.811 55.563 71.44s-38.036 71.44-55.569 71.44z" />
<glyph unicode="&#xe90d;" glyph-name="medias" horiz-adv-x="1103" d="M558.412 609.704c-62.125 0-112.49-50.362-112.49-112.49 0-62.125 50.362-112.489 112.49-112.489 62.125 0 112.49 50.362 112.49 112.489s-50.363 112.49-112.49 112.49zM558.412 438.294c-32.543 0-58.923 26.381-58.923 58.923s26.381 58.923 58.923 58.923c32.543 0 58.923-26.381 58.923-58.923s-26.381-58.923-58.923-58.923zM1007.072 866.831l-731.171 83.025c-28.377 4.034-57.129-4.25-79.008-22.766-21.877-16.963-35.901-42.108-38.836-69.635l-13.39-109.811h-41.516c-58.923 0-103.115-52.225-103.115-111.148v-547.706c-1.484-56.194 42.862-102.944 99.052-104.432 1.353-0.032 2.71-0.039 4.063-0.024h735.189c58.919 0 112.49 45.529 112.49 104.456v21.425c18.267 3.529 35.596 10.823 50.885 21.425 21.701 18.267 35.588 44.137 38.833 72.312l61.605 543.692c6.278 59.059-36.108 112.187-95.082 119.187zM897.26 88.791c0-29.468-29.46-50.893-58.919-50.893h-735.189c-26.614-0.78-48.821 20.165-49.603 46.773-0.041 1.371-0.023 2.749 0.054 4.12v99.093l207.568 152.663c24.934 19.144 60.056 17.443 83.027-4.017l145.966-128.558c22.166-18.611 50.070-29.015 79.011-29.461 22.628-0.276 44.884 5.749 64.28 17.41l263.813 152.662v-259.791h-0.008zM897.26 411.522l-291.931-170.071c-25.068-14.851-56.798-12.163-79.010 6.695l-147.305 129.898c-42.219 36.277-103.926 38.502-148.645 5.357l-176.766-128.557v381.653c0 29.461 20.088 57.583 49.549 57.583h735.189c31.476-1.305 56.895-26.147 58.919-57.583v-224.975zM1048.639 754.876c-0.016-0.176-0.032-0.356-0.055-0.533l-62.937-543.692c0.102-14.097-6.325-27.45-17.416-36.157-5.356-5.357-17.408-8.035-17.408-10.714v472.717c-2.111 61.007-51.46 109.766-112.482 111.148h-640.11l12.052 104.454c2.614 13.526 9.686 25.783 20.088 34.819 11.744 8.12 25.945 11.906 40.175 10.714l729.831-84.365c29.452-2.796 51.058-28.939 48.262-58.39z" />
<glyph unicode="&#xe90e;" glyph-name="edit" d="M957.673 884.576c-88.149 88.374-231.492 88.374-319.642 0l-586.037-585.894c-4.582-4.58-7.418-10.473-8.291-16.799l-43.418-321.638c-1.309-9.165 1.964-18.33 8.291-24.661 5.455-5.456 13.091-8.727 20.727-8.727 1.309 0 2.618 0 3.927 0.216l193.747 26.186c16.145 2.185 27.491 17.021 25.309 33.166-2.182 16.151-17.018 27.494-33.163 25.316l-155.346-20.946 30.327 224.319 236.074-236.106c5.455-5.456 13.091-8.727 20.727-8.727s15.272 3.055 20.727 8.727l586.040 585.893c42.763 42.769 66.327 99.503 66.327 159.947s-23.563 117.178-66.327 159.729zM649.381 812.567l98.401-98.412-534.768-534.831-98.401 98.412 534.768 534.831zM351.123 41.414l-96.218 96.233 534.764 534.83 96.222-96.23-534.768-534.833zM926.908 618.361l-235.418 235.447c29.889 24.658 67.197 38.187 106.473 38.187 44.726 0 86.619-17.457 118.255-48.879s48.873-73.536 48.873-118.269c0-39.496-13.528-76.591-38.184-106.486z" />
<glyph unicode="&#xe90f;" glyph-name="thumb-up" d="M954.462 378.545c20.105 30.367 30.14 63.793 30.14 100.305 0 42.26-15.573 78.966-46.746 110.175-31.181 31.177-68.105 46.763-110.768 46.763h-108.308c19.687 40.611 29.548 79.999 29.548 118.147 0 48.002-7.199 86.152-21.544 114.46-14.362 28.317-35.288 49.131-62.776 62.47-27.496 13.333-58.46 19.993-92.919 19.993-20.932 0-39.386-7.589-55.386-22.773-17.638-17.228-30.356-39.387-38.147-66.464-7.796-27.069-14.055-53.022-18.769-77.843-4.714-24.818-12.003-42.356-21.844-52.611-20.108-21.743-42.053-48.006-65.848-78.771-41.434-53.737-69.54-85.535-84.302-95.385h-168.608c-21.743 0-40.309-7.703-55.694-23.075-15.378-15.387-23.073-33.951-23.073-55.696v-393.83c0-21.743 7.686-40.303 23.073-55.689 15.393-15.386 33.951-23.083 55.694-23.083h177.214c9.027 0 37.329-8.209 84.919-24.619 50.463-17.647 94.872-31.078 133.226-40.311 38.359-9.233 77.23-13.85 116.617-13.85h79.379c57.841 0 104.4 16.521 139.686 49.553 35.273 33.024 52.716 78.046 52.306 135.073 24.619 31.591 36.924 68.103 36.924 109.532 0 9.021-0.606 17.84-1.843 26.464 15.582 27.476 23.39 57.015 23.39 88.606 0 14.77-1.843 28.931-5.538 42.46zM185.26 96.090c-7.794-7.791-17.023-11.699-27.69-11.699-10.669 0-19.901 3.908-27.697 11.699-7.791 7.789-11.691 17.023-11.691 27.698 0 10.665 3.89 19.891 11.691 27.69 7.805 7.795 17.027 11.692 27.697 11.692 10.667 0 19.895-3.897 27.69-11.692s11.694-17.023 11.694-27.69c0-10.675-3.899-19.909-11.694-27.698zM892.638 428.362c-8.823-18.868-19.806-28.509-32.93-28.914 6.153-6.977 11.281-16.73 15.386-29.231 4.105-12.516 6.135-23.896 6.135-34.157 0-28.293-10.854-52.709-32.598-73.215 7.391-13.122 11.077-27.282 11.077-42.453 0-15.18-3.584-30.257-10.765-45.228-7.171-14.958-16.922-25.731-29.224-32.292 2.050-12.305 3.067-23.795 3.067-34.459 0-68.506-39.386-102.758-118.162-102.758h-74.437c-53.754 0-123.895 14.959-210.464 44.919-2.054 0.819-7.994 2.978-17.847 6.46s-17.131 6.042-21.85 7.68c-4.721 1.655-11.893 4.011-21.541 7.083-9.645 3.081-17.43 5.342-23.383 6.775-5.944 1.425-12.719 2.765-20.302 3.994-7.586 1.229-14.050 1.843-19.383 1.843h-19.692v393.815h19.692c6.563 0 13.844 1.852 21.844 5.536 7.998 3.694 16.208 9.231 24.616 16.617 8.412 7.386 16.303 14.667 23.691 21.851 7.386 7.177 15.59 16.201 24.619 27.069 9.025 10.876 16.101 19.59 21.233 26.156 5.125 6.563 11.585 14.977 19.381 25.232 7.791 10.253 12.513 16.409 14.153 18.463 22.56 27.892 38.355 46.558 47.379 55.998 16.821 17.635 29.024 40.096 36.613 67.377 7.597 27.287 13.852 53.030 18.758 77.23 4.919 24.202 12.723 41.644 23.403 52.31 39.374 0 65.637-9.637 78.76-28.92 13.122-19.279 19.687-49.025 19.687-89.229 0-24.202-9.854-57.123-29.55-98.76-19.686-41.641-29.524-74.359-29.524-98.152h216.601c20.534 0 38.779-7.893 54.77-23.696 16.009-15.792 24.021-34.147 24.021-55.075-0.009-14.356-4.42-30.974-13.235-49.868z" />
<glyph unicode="&#xe910;" glyph-name="thumb-down" d="M69.542 499.169c-20.105-30.367-30.145-63.793-30.145-100.305 0-42.26 15.572-78.966 46.743-110.175 31.185-31.177 68.111-46.763 110.771-46.763h108.308c-19.687-40.61-29.548-79.999-29.548-118.147 0-47.999 7.199-86.152 21.544-114.457 14.362-28.322 35.288-49.135 62.776-62.473 27.496-13.338 58.46-19.994 92.919-19.994 20.932 0 39.386 7.586 55.386 22.775 17.638 17.229 30.356 39.381 38.147 66.466 7.796 27.068 14.055 53.018 18.769 77.841 4.714 24.816 12.003 42.354 21.844 52.609 20.107 21.743 42.052 48.006 65.847 78.771 41.434 53.737 69.54 85.535 84.302 95.385h168.605c21.743 0 40.311 7.703 55.697 23.075 15.377 15.387 23.074 33.951 23.074 55.696v393.83c0 21.745-7.689 40.303-23.074 55.689-15.394 15.387-33.954 23.086-55.697 23.086h-177.211c-9.027 0-37.328 8.203-84.919 24.614-50.463 17.644-94.872 31.076-133.226 40.309-38.358 9.233-77.23 13.852-116.617 13.852h-79.38c-57.841 0-104.4-16.523-139.686-49.551-35.272-33.029-52.715-78.051-52.31-135.075-24.614-31.591-36.919-68.102-36.919-109.532 0-9.021 0.606-17.84 1.843-26.464-15.583-27.476-23.394-57.015-23.394-88.606 0.006-14.77 1.849-28.931 5.546-42.46zM838.74 781.622c7.793 7.789 17.025 11.699 27.692 11.699s19.9-3.908 27.691-11.699c7.791-7.788 11.691-17.021 11.691-27.697 0-10.664-3.891-19.891-11.691-27.69-7.799-7.795-17.024-11.692-27.691-11.692s-19.898 3.897-27.692 11.692c-7.796 7.796-11.695 17.023-11.695 27.69 0 10.675 3.899 19.909 11.695 27.697zM131.366 449.352c8.822 18.868 19.799 28.509 32.925 28.914-6.151 6.977-11.283 16.73-15.386 29.231-4.099 12.516-6.136 23.896-6.136 34.157 0 28.293 10.856 52.71 32.602 73.215-7.392 13.122-11.081 27.282-11.081 42.453 0 15.18 3.584 30.257 10.768 45.228 7.171 14.958 16.922 25.73 29.224 32.291-2.050 12.305-3.067 23.795-3.067 34.459 0 68.507 39.386 102.762 118.162 102.762h74.437c53.754 0 123.895-14.965 210.464-44.919 2.054-0.819 7.994-2.981 17.847-6.462s17.131-6.048 21.85-7.683c4.721-1.653 11.893-4.011 21.541-7.080 9.645-3.085 17.43-5.344 23.383-6.772 5.944-1.431 12.719-2.766 20.302-3.999 7.586-1.231 14.050-1.842 19.383-1.842h19.692v-393.815h-19.692c-6.563 0-13.844-1.852-21.844-5.536-7.998-3.694-16.208-9.231-24.616-16.617-8.412-7.386-16.303-14.667-23.691-21.851-7.386-7.177-15.59-16.201-24.619-27.069-9.025-10.876-16.101-19.59-21.233-26.156-5.125-6.563-11.585-14.977-19.38-25.232-7.792-10.253-12.514-16.409-14.154-18.463-22.56-27.892-38.355-46.558-47.379-55.997-16.821-17.635-29.024-40.096-36.613-67.378-7.597-27.287-13.852-53.029-18.758-77.229-4.919-24.201-12.723-41.643-23.403-52.309-39.374 0-65.637 9.634-78.76 28.919-13.122 19.277-19.687 49.024-19.687 89.228 0 24.202 9.854 57.123 29.55 98.76 19.686 41.641 29.524 74.359 29.524 98.152h-216.601c-20.534 0-38.781 7.893-54.774 23.696-16.006 15.792-24.017 34.147-24.017 55.075 0.007 14.356 4.419 30.974 13.238 49.868z" />
<glyph unicode="&#xe911;" glyph-name="comment" d="M955.426 695.693c-45.713 56.185-107.807 100.57-186.28 133.141s-164.192 48.856-257.146 48.856c-92.952 0-178.668-16.284-257.143-48.856s-140.569-76.948-186.284-133.141c-45.717-56.189-68.572-117.423-68.572-183.709 0-57.14 17.233-110.679 51.712-160.581 34.479-49.905 81.616-91.815 141.432-125.718-4.196-15.233-9.147-29.705-14.863-43.431-5.714-13.712-10.856-24.952-15.427-33.719-4.575-8.754-10.76-18.474-18.575-29.131-7.804-10.672-13.708-18.2-17.709-22.58-3.996-4.386-10.568-11.614-19.716-21.717-9.137-10.086-15.045-16.666-17.708-19.721-0.387-0.188-1.908-1.894-4.574-5.146-2.664-3.234-4.001-4.847-4.001-4.847l-3.429-5.146c-1.907-2.842-2.764-4.651-2.576-5.402 0.192-0.777-0.188-2.679-1.141-5.717-0.955-3.055-0.857-5.342 0.284-6.861v-0.572c1.525-6.477 4.569-11.716 9.141-15.718 4.571-3.985 9.723-5.982 15.432-5.982h2.86c24.768 3.055 46.48 7.228 65.143 12.561 99.814 25.523 187.436 71.62 262.861 138.291 28.569-3.048 56.189-4.569 82.852-4.569 92.952 0 178.673 16.282 257.146 48.864 78.473 32.575 140.571 76.943 186.284 133.131 45.713 56.184 68.574 117.425 68.574 183.712 0 66.276-22.852 127.519-68.574 183.707zM891.136 366.266c-39.818-44.945-93.531-80.665-161.149-107.136-67.617-26.465-140.289-39.713-218.001-39.713-23.235 0-47.996 1.521-74.281 4.576l-32.572 3.418-24.572-21.72c-46.851-41.146-99.237-73.712-157.14-97.713 17.521 30.85 30.854 63.616 40.001 98.275l15.427 54.864-49.713 28.561c-49.524 28.206-87.9 61.63-115.144 100.301-27.24 38.659-40.854 79.334-40.854 121.997 0 52.192 19.905 100.76 59.712 145.713 39.819 44.948 93.526 80.665 161.148 107.139 67.622 26.477 140.28 39.727 217.999 39.727 77.712 0 150.369-13.244 217.987-39.718 67.616-26.477 121.329-62.192 161.151-107.14 39.808-44.953 59.716-93.522 59.716-145.71s-19.908-100.768-59.716-145.72zM384 502.857c0-35.346-28.654-64-64-64s-64 28.654-64 64c0 35.346 28.654 64 64 64s64-28.654 64-64zM576.020 502.857c0-35.346-28.654-64-64-64s-64 28.654-64 64c0 35.346 28.654 64 64 64s64-28.654 64-64zM768 502.857c0-35.346-28.654-64-64-64s-64 28.654-64 64c0 35.346 28.654 64 64 64s64-28.654 64-64z" />
<glyph unicode="&#xe912;" glyph-name="earth" horiz-adv-x="956" d="M696.416 672.891l0.928-7.072-10.636-2.195-1.413-15.066h12.739l16.937 1.626 8.752 10.364-9.298 3.604-5.093 5.839-7.646 12.343-3.652 17.456-14.37-2.92-4.030-6.152v-6.935l6.917-4.722 9.865-6.171zM684.169 667.090l0.771 9.443-8.434 3.624-11.793-2.723-8.746-13.989v-9.071h10.201l18.001 12.715zM441.438 626.992l-2.595-6.683h-12.56v-6.486h2.988c0 0 0.177-1.376 0.432-3.184l7.705 0.649 4.816 2.987 1.257 6.034 6.231 0.531 2.457 5.071-5.719 1.179-5.012-0.098zM409.058 615.266l-0.492-6.349 9.101 0.767 0.943 6.369-5.464 4.304-4.088-5.091zM955.617 413.392c-0.137 13.93-0.847 27.762-2.164 41.378-4.424 45.394-15.312 88.907-31.628 129.697-1.215 3.037-2.335 6.113-3.632 9.11-21.743 51.193-52.265 97.802-89.627 138.024-2.458 2.626-4.956 5.211-7.448 7.759-7.059 7.307-14.316 14.439-21.818 21.277-84.951 77.094-197.773 124.153-321.443 124.153-124.712 0-238.339-47.902-323.525-126.171-19.852-18.24-38.091-38.145-54.641-59.461-62.425-80.483-99.691-181.303-99.691-290.684 0-262.666 214.379-476.334 477.876-476.334 185.349 0 346.266 105.793 425.476 259.946 16.944 32.952 30.133 68.076 39.014 104.892 2.26 9.345 4.205 18.73 5.898 28.232 4.813 27.056 7.448 54.876 7.448 83.265 0.020 1.646-0.075 3.272-0.096 4.917zM865.676 603.766l2.772 3.095c3.632-7.034 7.031-14.184 10.274-21.433l-4.519 0.176-8.527-1.176v19.337zM796.624 686.874l0.082 21.277c7.503-7.935 14.739-16.104 21.654-24.568l-8.608-12.774-30.092 0.274-1.884 6.25 18.848 9.541zM220.177 739.753v0.803h9.572l0.825 3.272h15.665v-6.818l-4.501-5.995h-21.581l0.019 8.738zM235.469 718.495c0 0 9.572 1.626 10.398 1.626s0-9.521 0-9.521l-21.581-1.352-4.108 4.897 15.292 4.349zM896.116 529.415h-34.966l-21.306 15.811-22.426-2.174v-13.636h-7.093l-7.666 5.447-38.837 9.815v25.077l-49.22-3.82-15.251-8.169h-19.537l-9.572 0.96-23.724-13.126v-24.706l-48.489-34.873 4.029-14.89h9.828l-2.575-14.184-6.919-2.527-0.373-37.067 41.905-47.569h18.24l1.101 2.899h32.782l9.455 8.718h18.596l10.199-10.187 27.716-2.86-3.68-36.735 30.761-54.132-16.193-30.859 1.099-14.534 12.759-12.677v-34.953l16.746-22.453v-29.034h14.466c-80.507-98.529-203.039-161.628-340.134-161.628-241.798-0.020-438.527 196.089-438.527 437.129 0 60.676 12.501 118.511 35.006 171.076v13.636l15.685 18.984c5.444 10.247 11.282 20.238 17.512 29.976l0.708-7.935-18.201-22.041c-5.641-10.618-10.908-21.472-15.685-32.62v-24.882l18.22-8.737v-34.58l17.474-29.721 14.211-2.175 1.827 10.188-16.766 25.782-3.282 25.058h9.828l4.147-25.783 24.235-35.245-6.25-11.383 15.41-23.491 38.269-9.443v6.171l15.311-2.174-1.454-10.893 12.029-2.194 18.575-5.054 26.24-29.799 33.512-2.528 3.282-27.252-22.938-15.987-1.081-24.333-3.282-14.89 33.178-41.395 2.535-14.186c0 0 12.029-3.256 13.503-3.256 1.454 0 26.967-19.258 26.967-19.258v-74.82l9.101-2.546-6.192-34.522 15.312-20.35-2.83-34.208 20.225-35.444 25.965-22.61 26.102-0.471 2.555 8.369-19.184 16.104 1.101 7.994 3.439 9.796 0.727 9.987-12.972 0.396-6.545 8.185 10.771 10.329 1.455 7.796-12.029 3.427 0.708 7.25 17.139 2.587 26.063 12.479 8.746 15.988 27.341 34.871-6.212 27.273 8.393 14.52 25.139-0.765 16.923 13.36 5.464 52.627 18.771 23.762 3.282 15.262-17.119 5.466-11.302 18.475-38.623 0.392-30.623 11.638-1.455 21.766-10.22 17.809-27.694 0.412-15.999 25.038-14.211 6.916-0.727-7.641-25.866-1.528-9.474 13.146-26.986 5.466-22.23-25.607-34.987 5.917-2.535 39.301-25.532 4.35 10.24 19.278-2.929 11.069-33.551-22.354-21.11 2.566-7.528 16.438 4.599 16.947 11.636 21.375 26.79 13.518 51.732 0.020-0.137-15.733 18.594-8.62-1.475 26.88 13.405 13.44 27.046 17.711 1.847 12.461 26.967 27.977 28.677 15.83-2.535 2.077 19.419 18.22 7.115-1.881 3.263-4.075 7.371 8.15 1.808 0.803-8.079 1.137-8.196 2.723v7.836l4.344 3.546h9.572l4.383-1.92 3.794-7.64 4.639 0.705v0.666l1.337-0.451 13.444 2.057 1.907 6.544 7.666-1.92v-7.092l-7.115-4.878h0.020l1.042-7.778 24.353-7.484c0 0 0.020-0.098 0.059-0.294l5.602 0.47 0.373 10.521-19.301 8.758-1.101 5.054 16.019 5.446 0.707 15.281-16.746 10.168-1.1 25.763-22.957-11.246h-8.373l2.202 19.612-31.252 7.347-12.933-9.738v-29.701l-23.252-7.347-9.316-19.357-10.103-1.626v24.764l-21.857 3.017-10.928 7.092-4.403 16.046 39.094 22.804 19.124 5.799 1.926-12.813 10.653 0.548 0.825 6.446 11.145 1.587 0.197 2.253-4.796 1.979-1.101 6.818 13.7 1.156 8.275 8.582 0.452 0.627 0.098-0.039 2.516 2.586 28.795 3.624 12.737-10.775-33.394-17.731 42.495-9.992 5.503 14.165h18.575l6.565 12.343-13.13 3.272v15.615l-41.178 18.181-28.421-3.272-16.039-8.365 1.101-20.337-16.766 2.547-2.574 11.246 16.058 14.537-29.149 1.449-8.373-2.527-3.636-9.796 10.928-1.842-2.182-10.893-18.574-1.098-2.91-7.249-26.947-0.745c0 0-0.747 15.243-1.828 15.243s21.129 0.372 21.129 0.372l16.058 15.634-8.766 4.369-11.655-11.285-19.341 1.097-11.656 15.987h-24.785l-25.866-19.259h23.704l2.162-6.916-6.152-5.701 26.24-0.725 4.009-9.443-29.542 1.097-1.434 7.268-18.575 3.997-9.847 5.446-22.112-0.176c72.39 52.565 161.408 83.677 257.621 83.677 110.894 0 212.216-41.319 289.522-109.205l-5.209-9.286-20.227-7.896-8.527-9.228 1.966-10.756 10.431-1.449 6.294-15.673 18.002 7.229 2.97-20.963h-5.427l-14.78 2.174-16.391-2.743-15.865-22.334-22.678-3.546-3.284-19.356 9.571-2.253-2.772-12.441-22.524 4.506-20.658-4.506-4.383-11.461 3.577-24.059 12.127-5.662 20.344 0.118 13.735 1.234 4.192 10.893 21.463 27.801 14.131-2.88 13.913 12.539 2.594-9.796 34.243-23.020-4.185-5.603-15.428 0.823 5.932-8.385 9.496-2.077 11.121 4.624-0.232 13.362 4.929 2.469-3.966 4.192-22.842 12.696-6.014 16.869h18.985l6.076-5.995 16.357-14.047 0.683-16.986 16.944-17.986 6.308 24.647 11.735 6.386 2.205-20.16 11.455-12.539 22.863 0.392c4.424-11.344 8.39-22.883 11.872-34.658l-2.383-2.195zM260.648 668.38l11.478 5.446 10.378-2.469-3.577-13.891-11.203-3.546-7.076 14.459zM321.559 635.681v-8.993h-26.22l-9.828 2.724 2.457 6.269 12.599 5.192h17.218v-5.192h3.774zM333.627 623.142v-8.718l-6.565-4.212-8.176-1.509c0 0 0 13.068 0 14.439h14.742zM326.237 626.688v10.364l9.021-8.189-9.021-2.175zM330.344 605.725v-8.483l-6.27-6.27h-13.936l2.182 9.522 6.585 0.568 1.356 3.272 10.083 1.391zM295.634 623.142h14.486l-18.575-25.881-7.665 4.095 1.651 10.893 10.103 10.893zM354.953 608.703v-8.464h-13.936l-3.813 5.486v7.876h1.1l16.648-4.898zM342.079 620.341l3.97 4.153 6.702-4.153-5.366-4.408-5.307 4.408zM903.236 507.354l1.372 1.607c0.573-2.469 1.181-4.937 1.734-7.445l-3.106 5.838zM74.334 593.172v-13.636c4.776 11.128 10.043 21.982 15.685 32.62l-15.685-18.984z" />
<glyph unicode="&#xe913;" glyph-name="eye" horiz-adv-x="1152" d="M1139.149 483.207c-60.012 98.136-140.695 176.999-242.042 236.563-101.363 59.576-208.391 89.363-321.107 89.363s-219.751-29.779-321.107-89.363c-101.363-59.567-182.045-138.427-242.042-236.563-8.568-14.999-12.852-29.786-12.852-44.359 0-14.58 4.284-29.363 12.852-44.359 59.999-98.143 140.681-177.012 242.042-236.563 101.354-59.58 208.391-89.345 321.107-89.345s219.744 29.664 321.107 89.021c101.347 59.351 182.045 138.319 242.042 236.887 8.568 14.999 12.852 29.772 12.852 44.359 0 14.573-4.284 29.363-12.852 44.359zM438.098 659.031c38.354 38.354 84.319 57.535 137.894 57.535 8.568 0 15.863-3.011 21.859-9.007s9.007-13.284 9.007-21.852c0-8.575-3.011-15.863-8.993-21.852-5.99-6.005-13.291-9-21.859-9-36.851 0-68.364-13.082-94.5-39.218-26.15-26.15-39.218-57.65-39.218-94.5 0-8.582-3.011-15.863-9-21.866-6.005-6.005-13.291-9.007-21.859-9.007-8.575 0-15.863 3.011-21.866 9.007-6.005 6.005-9 13.291-9 21.866 0 53.561 19.181 99.533 57.535 137.894zM855.325 228.938c-85.932-52.056-179.035-78.098-279.324-78.098s-193.392 26.028-279.317 78.098c-85.932 52.079-157.392 122.040-214.394 209.909 65.147 101.147 146.786 176.789 244.931 226.922-26.143-44.561-39.218-92.779-39.218-144.635 0-79.295 28.188-147.096 84.535-203.465 56.354-56.363 124.187-84.535 203.465-84.535 79.286 0 147.096 28.188 203.465 84.535 56.363 56.347 84.535 124.171 84.535 203.465 0 51.854-13.075 100.080-39.218 144.635 98.136-50.135 179.784-125.784 244.922-226.922-56.988-87.869-128.448-157.831-214.38-209.909z" />
<glyph unicode="&#xe914;" glyph-name="megaphone" d="M1024 475.993c0 74.614-54.717 136.664-126.121 148.199v209.853c0 25.259-13.044 47.913-34.887 60.595-21.843 12.686-47.982 12.778-69.92 0.26l-365.615-208.704h-277.31c-82.791 0-150.147-67.356-150.147-150.146v-120.119c0-82.79 67.356-150.146 150.147-150.146h5.235l135.316-246.949c15.321-27.963 44.648-45.336 76.533-45.336 26.338 0 50.991 11.709 67.635 32.118 16.644 20.413 23.15 46.919 17.849 72.716l-38.518 187.451h13.261l365.615-208.703c10.89-6.215 22.816-9.322 34.741-9.322 12.091 0 24.182 3.198 35.178 9.582 21.843 12.682 34.887 35.336 34.887 60.597v209.853c71.404 11.532 126.121 73.582 126.121 148.2zM832.835 109.279c-1.863-1.079-5.632-2.525-9.988-0.039l-357.392 204.012v325.48l357.392 204.008c4.352 2.484 8.125 1.043 9.988-0.038 1.859-1.081 4.982-3.642 4.982-8.656v-716.11c0-5.014-3.123-7.574-4.982-8.657zM388.319 43.573c-3.049-3.742-9.846-10.016-21.089-10.016-9.941 0-19.085 5.415-23.861 14.135l-119.503 218.092h129.016l41.003-199.542c2.261-11.012-2.517-18.928-5.566-22.67zM141.138 385.904c16.584 0 30.029 13.446 30.029 30.027 0 16.585-13.445 30.031-30.029 30.031h-81.079v60.058h81.079c16.584 0 30.029 13.446 30.029 30.031s-13.445 30.029-30.029 30.029h-75.914c12.396 34.952 45.775 60.059 84.923 60.059h255.251v-300.295h-255.251c-39.148 0-72.527 25.108-84.923 60.062h75.914zM897.879 389.181v173.619c38.042-10.543 66.064-45.453 66.064-86.811s-28.022-76.264-66.064-86.808z" />
<glyph unicode="&#xe915;" glyph-name="paper-airplane" horiz-adv-x="1109" d="M0.098 438.729c1.358-22.852 16.517-42.082 38.465-48.644l406.37-122.863 14.933-280.115c0.678-11.089 8.145-20.817 18.782-24.435 2.94-1.135 6.11-1.587 9.050-1.587 7.919 0 15.386 3.17 20.817 9.28l143.676 159.061 203.639-140.962c9.050-6.336 19.686-9.728 30.771-9.728 25.57 0 47.744 18.099 53.171 43.443l169.020 861.387c2.039 9.955-1.809 20.364-9.502 26.699-7.919 6.562-18.551 8.146-28.058 4.299l-1038.552-422.664c-21.043-9.502-33.94-30.319-32.582-53.171zM511.454 56.568l-9.276 176.713 104.081-71.949-94.805-104.764zM885.696 35.072l-370.62 256.585 519.727 502.761-149.107-759.345zM977.788 816.591l-513.847-497.103-405.919 122.637 919.767 374.466z" />
<glyph unicode="&#xe916;" glyph-name="facebook" horiz-adv-x="546" d="M487.629 443.616h-137.683v-490.893h-208.601v490.893h-99.211v172.52h99.211v111.64c0 79.835 38.967 204.848 210.458 204.848l154.518-0.629v-167.46h-112.113c-18.39 0-44.248-8.942-44.248-47.025v-101.534h155.894l-18.224-172.36z" />
<glyph unicode="&#xe917;" glyph-name="linkedin" horiz-adv-x="945" d="M930.233 329.788v-357.221h-198.102v333.28c0 83.684-28.602 140.832-100.329 140.832-54.738 0-87.255-38.475-101.615-75.73-5.215-13.314-6.56-31.802-6.56-50.476v-347.891h-198.119c0 0 2.659 564.468 0 622.898h198.134v-88.271c-0.399-0.695-0.96-1.375-1.315-2.039h1.315v2.039c26.327 42.352 73.279 102.898 178.543 102.898 130.336 0 228.049-89.027 228.049-280.32zM118.259 895.742c-67.768 0-112.105-46.506-112.105-107.608 0-59.806 43.051-107.655 109.505-107.655h1.286c69.098 0 112.060 47.85 112.060 107.655-1.315 61.102-42.963 107.608-110.746 107.608zM17.929-27.433h198.045v622.914h-198.045v-622.914z" />
<glyph unicode="&#xe918;" glyph-name="twitter" horiz-adv-x="1195" d="M1172.267 788.268c-40.226-17.836-83.49-29.901-128.87-35.289 46.327 27.759 81.886 71.682 98.671 124.105-43.358-25.718-91.392-44.375-142.481-54.431-40.926 43.588-99.234 70.829-163.808 70.829-123.888 0-224.366-100.479-224.366-224.366 0-17.585 1.992-34.703 5.84-51.134-186.467 9.353-351.8 98.671-462.469 234.455-19.309-33.13-30.386-71.699-30.386-112.81 0-77.823 39.639-146.527 99.809-186.751-36.762 1.155-71.38 11.244-101.617 28.093-0.016-0.954-0.016-1.907-0.016-2.844 0-108.711 77.371-199.385 179.991-219.983-18.807-5.153-38.669-7.881-59.099-7.881-14.49 0-28.529 1.389-42.216 3.999 28.546-89.117 111.388-153.988 209.591-155.813-76.803-60.186-173.533-96.044-278.68-96.044-18.071 0-35.975 1.055-53.493 3.146 99.241-63.681 217.204-100.809 343.902-100.809 412.69 0 638.38 341.873 638.38 638.39 0 9.722-0.222 19.41-0.657 29.014 43.87 31.625 81.903 71.13 111.974 116.123z" />
<glyph unicode="&#xe919;" glyph-name="feather" d="M656.308 551.977l72.447-8.824c9.421-1.156 18.766 2.736 24.602 10.217v0c83.743 107.259 145.186 221.788 182.658 340.41v0c2.265 7.164 1.451 14.947-2.25 21.489-3.701 6.536-9.953 11.246-17.265 12.995h-0.003c-74.614 17.857-151.365 23.583-228.092 17.024v0c-75.641-6.458-149.481-24.689-219.472-54.179M656.308 551.977l-187.374 339.131M656.308 551.977l32.001-42.601c7.847-10.451 7.112-25.015-1.75-34.617l2.15-1.987M656.308 551.977l32.402-79.205M468.933 891.108c-145.543-61.337-264.312-166.231-343.493-303.367M468.933 891.108l-343.493-303.367M125.44 587.741c-41.156-71.294-69.586-148.097-84.509-228.299-14.418-77.511-15.959-156.549-4.575-234.911 0.647-4.435 2.4-8.584 5.016-12.142M125.44 587.741l-84.068-475.353M688.71 472.772l-2.15 1.987c-44.74-48.491-94.053-94.319-146.564-136.215-133.878-106.786-285.13-185.283-439.282-228.232l-1.479-0.413-0.501-1.451c-17.902-51.829-32.088-104.346-42.138-156.567-2.495-12.946-13.839-21.955-26.557-21.955-1.704 0-3.424 0.155-5.15 0.486-14.687 2.826-24.297 17.019-21.469 31.706 9.586 49.79 22.406 99.068 38.375 147.623l0.471 1.434M688.71 472.772l-646.444-361.598M42.266 111.174l-0.894 1.214M42.266 111.174l-0.894 1.214M728.398 540.251c10.445-1.281 20.799 3.031 27.268 11.32l-27.268-11.32zM718.318 598.97l1.668-0.202 1.018 1.34c55.597 73.329 100.279 150.024 133.521 228.959l2.139 5.079-5.407-1.074c-254.994-50.659-499.182-241.458-655.924-512.938-26.173-45.328-49.447-92.511-69.557-140.712l-2.452-5.878 6.057 1.969c132.22 42.976 261.223 113.134 376.841 205.362 43.748 34.892 85.156 72.619 123.386 112.385l1.726 1.793-1.495 1.992-55.001 73.21c0 0 0 0 0 0-6.516 8.681-7.227 20.413-1.796 29.81 5.427 9.392 15.957 14.643 26.712 13.332h0.003l118.562-14.43zM172.333 560.666v0c-58.823-101.891-89.125-214.203-89.439-329.377l5.595-1.205c17.811 39.687 37.804 78.772 59.951 117.125v0c81.701 141.514 189.942 266.193 312.989 360.555 114.77 88.012 240.734 148.331 366.054 175.651l-0.287 5.765c-25.322 2.943-50.653 4.394-75.867 4.394-234.089 0-458.711-124.573-578.996-332.907zM859.999-16.068h134.001c14.953 0 27.075-12.127 27.075-27.075 0-14.953-12.121-27.075-27.075-27.075h-134.001c-14.953 0-27.075 12.121-27.075 27.075 0 14.947 12.121 27.075 27.075 27.075zM150-16.068h589.992c14.953 0 27.075-12.127 27.075-27.075 0-14.953-12.121-27.075-27.075-27.075h-589.992c-14.947 0-27.074 12.121-27.074 27.075 0 14.947 12.128 27.075 27.074 27.075z" />
<glyph unicode="&#xe91a;" glyph-name="article" horiz-adv-x="1280" d="M123.001-54.673h1034.253c50.746 0 92.25 41.248 92.25 92v802.748c0 50.75-41.254 92-92.25 92h-1034.253c-50.75 0-92-41.25-92-92v-802.748c-0.25-50.752 41.25-92 92-92zM1156.998 6.575h-1033.997c-17 0-30.75 13.754-30.75 30.752v602.248h1095.749v-602.248c0-16.998-13.997-30.752-31.002-30.752zM123.001 871.076h1034.253c16.998 0 30.995-13.75 30.995-30.75v-139.25h-1096.248v139c0 17.25 14 31 31 31zM177.25 755.325c8 0 16 3.251 21.5 9 5.75 5.75 9 13.5 9 21.75 0 8-3.25 16-9 21.5-11.25 11.5-31.75 11.5-43.25 0-5.75-5.75-9-13.5-9-21.5s3.25-16 9-21.75c5.75-5.75 13.5-9 21.75-9zM292.75 755.325c8 0 16 3.251 21.75 9s9 13.5 9 21.75c0 8-3.251 16-9 21.5-11.25 11.5-32 11.5-43.25 0-5.75-5.75-9-13.5-9-21.5s3.25-16 9-21.75c5.75-5.75 13.5-9 21.5-9zM408.5 755.325c8 0 16 3.251 21.5 9 5.75 5.75 9 13.5 9 21.75s-3.251 16-9 21.5c-11.25 11.5-32 11.5-43.25 0-5.75-5.75-9-13.5-9-21.5s3.25-16 9-21.75c5.75-5.75 13.75-9 21.75-9zM1073.248 559.826h-433.248c-17 0-30.75-13.75-30.75-30.75s13.75-30.75 30.75-30.75h433.248c17.005 0 30.752 13.75 30.752 30.75 0 17.25-13.747 30.75-30.752 30.75zM640 359.857h205.248c17.005 0 30.752 13.75 30.752 30.749s-13.747 30.75-30.752 30.75h-205.248c-17 0-30.75-13.75-30.75-30.75 0.25-17 13.75-30.749 30.75-30.749zM1073.248 282.326h-433.248c-17 0-30.75-13.747-30.75-30.752 0-16.998 13.75-30.746 30.75-30.746h433.248c17.005 0 30.752 13.747 30.752 30.746 0 17.005-13.747 30.752-30.752 30.752zM1073.248 143.574h-866.498c-17 0-30.75-13.747-30.75-30.746 0-17.005 13.75-30.752 30.75-30.752h866.498c17.005 0 30.752 13.747 30.752 30.752 0 16.998-13.747 30.746-30.752 30.746zM218.25 224.355h300.5c17 0 30.75 13.754 30.75 30.752v274.25c0 17-13.75 30.75-30.75 30.75h-300.5c-17 0-30.75-13.75-30.75-30.75v-274.25c0.25-16.998 13.75-30.752 30.75-30.752zM249 498.607h239.25v-212.998h-239.25v212.998z" />
<glyph unicode="&#xe91b;" glyph-name="newspaper" horiz-adv-x="1273" d="M1221.729 329.737c-15.047 8.441-34.141 6.587-52.387-5.090l-337.070-215.743c-9.382-6.008-12.197-18.601-6.291-28.138 5.909-9.534 18.302-12.396 27.681-6.39l337.073 215.743c7.118 4.555 11.015 4.223 11.591 3.897 0.584-0.327 2.934-3.495 2.934-12.047 0-22.982-16.783-53.885-35.917-66.134l-326.772-209.148c-17.375-11.123-33.258-14.178-43.581-8.391-10.32 5.793-16.237 21.083-16.237 41.956 0 52.877 37.191 121.352 81.212 149.526l372.069 238.141c5.837 3.733 9.374 10.257 9.374 17.267s-3.54 13.531-9.374 17.264l-714.932 457.593c-6.534 4.184-14.856 4.184-21.391 0l-376.597-241.040c-53.515-34.253-95.437-111.437-95.437-175.717v-10.882c0-64.28 41.921-141.467 95.437-175.718l560.128-358.511c9.379-6.003 21.775-3.138 27.681 6.393 5.906 9.534 3.091 22.132-6.291 28.135l-560.127 358.513c-41.568 26.599-76.684 91.261-76.684 141.187v10.882c0 49.927 35.116 114.583 76.684 141.187l365.899 234.194 677.263-433.479-345.094-220.88c-56.057-35.879-99.965-116.725-99.965-184.057 0-36.712 13.132-64.299 36.98-77.677 9.579-5.377 20.142-8.043 31.337-8.043 16.675 0 34.752 5.92 53.035 17.624l326.775 209.151c30.656 19.622 54.668 63.837 54.668 100.662 0 21.916-8.629 39.324-23.674 47.768zM1003.033 425.019c6.958 0 13.76 3.321 17.743 9.374 6.163 9.379 3.227 21.77-6.562 27.676l-483.945 291.971c-9.792 5.905-22.719 3.088-28.882-6.287-6.163-9.378-3.227-21.768 6.562-27.673l483.945-291.971c3.465-2.090 7.326-3.089 11.139-3.089zM919.773 369.668c7.049 0 13.943 3.396 17.962 9.59 6.213 9.565 3.219 22.185-6.692 28.185l-206.721 125.152c-9.913 6.003-22.982 3.105-29.192-6.462-6.213-9.57-3.219-22.188 6.692-28.185l206.721-125.152c3.495-2.12 7.384-3.127 11.231-3.127zM641.057 477.271c-9.858 5.967-22.841 3.058-28.996-6.498s-3.152-22.135 6.706-28.102l206.986-125.257c3.468-2.095 7.317-3.097 11.126-3.097 7.019 0 13.879 3.401 17.87 9.598 6.155 9.554 3.152 22.135-6.706 28.099l-206.986 125.257zM430.617 698.599l-171.876-108.127c-6.031-3.792-9.682-10.42-9.66-17.541s3.709-13.724 9.762-17.485l204.979-127.311c3.346-2.078 7.132-3.116 10.921-3.116 3.905 0 7.81 1.104 11.225 3.307l45.654 29.475c9.592 6.194 12.341 18.98 6.144 28.564-6.199 9.584-19.002 12.327-28.597 6.138l-34.639-22.365-165.78 102.965 132.912 83.614 163.367-102.323-19.046-12.296c-9.592-6.197-12.343-18.983-6.144-28.564 6.202-9.584 19.010-12.33 28.595-6.138l46.326 29.912c5.936 3.833 9.504 10.431 9.457 17.494-0.050 7.060-3.706 13.608-9.695 17.358l-201.9 126.459c-6.728 4.217-15.283 4.209-22.005-0.019zM771.764 268.569c6.097 9.543 3.091 22.085-6.717 28.016l-207.255 125.363c-9.808 5.936-22.705 3.008-28.799-6.534-6.097-9.54-3.091-22.082 6.717-28.013l207.255-125.365c3.435-2.078 7.254-3.069 11.023-3.069 6.985 0 13.816 3.407 17.776 9.603zM174.044 534.748c-6.368-8.862-3.72-20.845 5.917-26.762l502.637-308.736c3.374-2.076 7.162-3.13 10.932-3.241 6.985-0.21 13.91 2.815 18.045 8.571 6.368 8.865 3.722 20.845-5.917 26.765l-502.636 308.733c-9.638 5.925-22.61 3.534-28.978-5.33z" />
<glyph unicode="&#xe91c;" glyph-name="author" horiz-adv-x="1084" d="M133.835 117.185h816.352c60.988 0 110.541 49.553 110.541 110.541v586.59c0 60.988-49.553 110.541-110.541 110.541h-816.352c-60.988 0-110.541-49.553-110.541-110.541v-586.376c0-61.202 49.553-110.755 110.541-110.755zM75.176 814.316c0 32.188 26.259 58.659 58.659 58.659h816.352c32.401 0 58.66-26.259 58.66-58.659v-586.376c0-32.401-26.26-58.66-58.66-58.66h-816.352c-32.4 0-58.659 26.26-58.659 58.66v586.376zM542.112 77.165c-14.399 0-26.046-11.646-26.046-26.046v-46.589h-138.282c-14.402 0-26.049-11.646-26.049-26.046 0-14.402 11.646-26.049 26.049-26.049h328.659c14.399 0 26.046 11.646 26.046 26.049 0 14.399-11.646 26.046-26.046 26.046h-138.285v46.589c-0.211 14.61-11.646 26.046-26.046 26.046zM303.658 266.268c0.635 0 1.271 0 1.906 0 14.188 1.060 24.989 13.342 24.139 27.741-1.482 19.908 0 54.426 25.202 60.988 100.587 25.199 139.975 58.446 155.223 83.649 8.68-1.696 17.787-2.753 27.317-2.967 0.635 0 1.271 0 1.906 0h1.482c0.635 0 1.271 0 1.906 0 11.436 0.214 22.236 1.696 32.401 4.238 15.67-25.413 55.269-59.931 154.588-84.92 25.199-6.352 26.681-40.87 25.199-60.988-1.060-14.399 9.74-26.681 24.142-27.741 0.632 0 1.268 0 1.903 0 13.553 0 24.989 10.379 25.835 24.142 4.238 60.564-19.694 103.554-64.376 114.775-76.658 19.272-109.056 43.201-120.281 57.6 4.87 4.024 9.74 8.472 14.188 13.342 49.763 55.907 42.141 150.353 41.083 161.154-5.295 102.282-75.812 138.282-134.683 138.282-1.060 0-1.906 0-2.753 0-0.635 0-1.696 0-2.753 0-58.871 0-129.388-36.212-134.472-138.071-1.057-10.8-8.469-105.035 41.083-161.154 5.295-6.141 11.222-11.436 17.363-16.092-12.068-13.767-44.68-36.213-119.435-55.061-44.47-11.222-68.611-54.212-64.164-114.775 1.059-13.553 12.494-24.142 26.047-24.142zM454.433 632.833c0 0.635 0 1.060 0.214 1.696 3.599 80.682 59.082 89.364 82.589 89.364h1.693c0.635 0 1.271 0 2.117 0h1.696c23.718 0 78.987-8.682 82.589-89.364 0-0.635 0-1.060 0.211-1.696 2.328-22.236 2.117-87.669-28.377-121.976-13.764-15.459-32.187-23.082-56.754-23.293-0.422 0-0.635 0-1.057 0-24.353 0.211-42.99 7.834-56.754 23.293-30.069 33.882-30.494 99.53-28.166 121.976z" />
<glyph unicode="&#xe91d;" glyph-name="chevron-up" d="M475.453 705.794l-460.334-460.489c-20.158-20.206-20.158-52.943 0-73.2 20.151-20.206 52.89-20.206 73.048 0l423.807 423.965 423.812-423.914c20.154-20.206 52.892-20.206 73.097 0 20.155 20.206 20.155 52.994 0 73.2l-460.337 460.489c-19.946 19.9-53.198 19.9-73.093-0.051z" />
<glyph unicode="&#xe91e;" glyph-name="chevron-down" d="M548.547 171.92l460.334 460.489c20.158 20.206 20.158 52.943 0 73.2-20.151 20.206-52.89 20.206-73.048 0l-423.807-423.965-423.812 423.914c-20.154 20.206-52.892 20.206-73.097 0-20.155-20.206-20.155-52.994 0-73.2l460.337-460.489c19.946-19.9 53.198-19.9 73.093 0.051z" />
<glyph unicode="&#xe91f;" glyph-name="stats" horiz-adv-x="1078" d="M1052.532 16.478h-1027.064c-14.067 0-25.468-11.399-25.468-25.468 0-14.063 11.399-25.468 25.468-25.468h1027.064c14.063 0 25.468 11.405 25.468 25.468s-11.399 25.468-25.468 25.468zM986.134 791.938h-178.855c-14.063 0-25.468-11.405-25.468-25.468v-173.153h-127.921v293.387c0 14.063-11.405 25.468-25.468 25.468h-178.855c-14.063 0-25.468-11.405-25.468-25.468v-481.907h-127.927v216.483c0 14.067-11.405 25.468-25.468 25.468h-178.851c-14.067 0-25.468-11.399-25.468-25.468v-487.548c0-14.067 11.405-25.468 25.468-25.468h894.281c14.067 0 25.468 11.405 25.468 25.468v632.738c0 14.063-11.399 25.468-25.468 25.468zM245.241 159.2h-127.921v436.611h127.921v-436.611zM424.097 159.2h-127.921v194.659h127.921v-194.659zM602.958 567.848v-408.648h-127.927v702.035h127.927v-293.387zM781.816 159.2h-127.921v383.181h127.921v-383.181zM960.671 159.2h-127.921v581.803h127.921v-581.803z" />
<glyph unicode="&#xe920;" glyph-name="article-edit" d="M945.111 307.58c-14.085 0-25.503-11.418-25.503-25.503v-226.442c-0.051-42.235-34.268-76.467-76.508-76.508h-715.586c-42.239 0.041-76.459 34.273-76.509 76.508v664.582c0.050 42.229 34.269 76.459 76.509 76.509h226.438c14.087 0 25.503 11.417 25.503 25.503 0 14.076-11.417 25.503-25.503 25.503h-226.438c-70.392-0.080-127.435-57.122-127.515-127.515v-664.587c0.080-70.395 57.122-127.437 127.515-127.519h715.586c70.39 0.082 127.437 57.124 127.514 127.519v226.447c0 14.085-11.418 25.503-25.503 25.503zM484.311 901.064c-33.478-34.002-33.056-88.705 0.942-122.186l345.14-339.888c2.365-2.33 5.289-4.004 8.489-4.864l162.954-43.786c6.676-1.802 13.804 0.133 18.662 5.064 4.854 4.936 6.682 12.088 4.782 18.739l-46.3 162.272c-0.911 3.188-2.627 6.085-4.992 8.414l-345.149 339.881c-34.017 33.429-88.673 33.007-122.174-0.942l-22.353-22.703zM842.547 480.92l-282.476 278.172 89.702 91.107 282.481-278.179-89.708-91.1zM878.925 463.14l71.675 72.787 28.447-99.697-100.122 26.909zM601.902 897.351l20.516-20.205-89.713-91.114-20.516 20.212c-18.884 18.597-19.119 48.987-0.523 67.873l22.354 22.711c18.616 18.857 48.983 19.091 67.881 0.523zM544.932 438.857h-270.662c-10.15 0-18.27-11.377-18.27-25.6s8.12-25.6 18.27-25.6h270.662c10.148 0 18.268 11.377 18.268 25.6s-8.253 25.6-18.268 25.6zM689.398 336.457h-405.993c-15.224 0-27.404-11.377-27.404-25.6s12.18-25.6 27.404-25.6h405.993c15.222 0 27.402 11.377 27.402 25.6s-12.385 25.6-27.402 25.6zM689.398 234.057h-405.993c-15.224 0-27.404-11.377-27.404-25.6s12.18-25.6 27.404-25.6h405.993c15.222 0 27.402 11.377 27.402 25.6s-12.385 25.6-27.402 25.6z" />
<glyph unicode="&#xe921;" glyph-name="print" d="M847.319 740.964h-26.312v58.575c0 83.406-67.917 151.319-151.322 151.319h-317.704c-83.406 0-151.319-67.913-151.319-151.319v-58.575h-23.982c-83.405 0-151.318-67.913-151.318-151.319v-244.064c0-83.405 67.913-151.316 151.318-151.316h23.77v-191.857c0-41.595 33.956-75.551 75.553-75.551h469.238c41.595 0 75.551 33.956 75.551 75.551v191.857h26.527c83.41 0 151.322 67.912 151.322 151.316v244.064c0 83.405-67.912 151.319-151.322 151.319zM257.752 799.538c0 51.784 42.233 94.017 94.017 94.017h317.492c51.784 0 94.019-42.233 94.019-94.017v-58.575h-505.527v58.575zM763.489 1.988c0-9.979-8.274-18.253-18.248-18.253h-469.238c-9.975 0-18.252 8.274-18.252 18.253v316.431h505.737v-316.431zM941.338 345.371c0-51.784-42.235-94.019-94.019-94.019h-26.312v67.067h37.775c15.918 0 28.652 12.733 28.652 28.652 0 15.913-12.733 28.646-28.652 28.646h-700.354c-15.917 0-28.65-12.733-28.65-28.646 0-15.918 12.733-28.652 28.65-28.652h42.234v-67.067h-23.982c-51.784 0-94.017 42.235-94.017 94.019v244.062c0 51.784 42.233 94.017 94.017 94.017h670.638c51.784 0 94.019-42.233 94.019-94.017v-244.062zM327.157 177.507h364.822c15.913 0 28.646 12.733 28.646 28.652 0 15.913-12.733 28.646-28.646 28.646h-364.822c-15.917 0-28.65-12.733-28.65-28.646 0-15.918 12.946-28.652 28.65-28.652zM694.308 117.633h-365.032c-15.917 0-28.651-12.733-28.651-28.652s12.734-28.652 28.651-28.652h364.822c15.913 0 28.652 12.733 28.652 28.652s-12.739 28.652-28.442 28.652zM846.689 628.482h-58.153c-15.913 0-28.646-12.733-28.646-28.65s12.733-28.651 28.646-28.651h58.153c15.918 0 28.652 12.734 28.652 28.651s-12.733 28.65-28.652 28.65z" />
<glyph unicode="&#xe922;" glyph-name="instagram" d="M718.945 950.857h-413.889c-168.208 0-305.055-136.847-305.055-305.055v-413.889c0-168.209 136.847-305.055 305.055-305.055h413.889c168.209 0 305.055 136.846 305.055 305.055v413.889c0 168.208-136.846 305.055-305.055 305.055zM920.986 231.912c0-111.582-90.459-202.041-202.041-202.041h-413.889c-111.583 0-202.041 90.459-202.041 202.041v413.889c0 111.585 90.458 202.041 202.041 202.041h413.889c111.582 0 202.041-90.456 202.041-202.041v-413.889zM512.010 703.69c-146.035 0-264.843-118.808-264.843-264.841s118.808-264.845 264.843-264.845c146.035 0 264.842 118.812 264.842 264.845s-118.807 264.841-264.842 264.841zM512.010 277.019c-89.376 0-161.828 72.454-161.828 161.828 0 89.376 72.454 161.828 161.828 161.828s161.828-72.452 161.828-161.828c0-89.374-72.454-161.828-161.828-161.828zM777.353 638.239c35.049 0 63.46 28.413 63.46 63.462s-28.41 63.462-63.46 63.462c-35.049 0-63.465-28.413-63.465-63.462s28.416-63.462 63.465-63.462z" />
<glyph unicode="&#xe923;" glyph-name="timetable-1" d="M963.965 366.352v492.507c0 16.57-13.423 29.998-29.993 29.998h-152.004v31.999c0 16.57-13.431 29.995-29.998 29.995s-29.993-13.426-29.993-29.995v-31.999h-120.002v31.999c0 16.57-13.431 29.995-29.998 29.995s-29.998-13.426-29.998-29.995v-31.999h-119.994v31.999c0 16.57-13.431 29.995-29.998 29.995s-29.998-13.426-29.998-29.995v-31.999h-120.002v31.999c0 16.57-13.423 29.995-29.993 29.995-16.575 0-29.998-13.426-29.998-29.995v-31.999h-152.004c-16.57 0-29.993-13.431-29.993-29.998v-781.995c0-16.575 13.423-29.998 29.993-29.998h499.611c48.502-72.298 130.975-120.002 224.395-120.002 148.881 0 270.002 121.121 270.002 269.994 0 64.148-22.495 123.126-60 169.502zM181.963 828.847v-29.993c0-16.575 13.423-29.998 29.998-29.998 16.57 0 29.993 13.423 29.993 29.998v29.993h120.002v-29.993c0-16.575 13.431-29.998 29.998-29.998s29.998 13.423 29.998 29.998v29.993h119.994v-29.993c0-16.575 13.431-29.998 29.998-29.998s29.998 13.423 29.998 29.998v29.993h120.002v-29.993c0-16.575 13.423-29.998 29.993-29.998s29.998 13.423 29.998 29.998v29.993h122.006v-120.002h-843.996v120.002h122.006zM59.975 106.855v542h843.996v-227.613c-42.93 28.79-94.542 45.607-150 45.607-94.794 0-178.333-49.12-226.52-123.231-4.061 2.043-8.617 3.231-13.478 3.231h-60c-16.57 0-29.993-13.431-29.993-29.998s13.423-29.998 29.993-29.998h45.452c-6.774-19.103-11.464-39.2-13.772-60h-31.68c-16.57 0-29.993-13.423-29.993-29.998 0-16.57 13.423-29.993 29.993-29.993h31.68c2.312-20.799 6.985-40.894 13.772-60h-439.45zM753.971-13.147c-115.8 0-210.006 94.206-210.006 210.006 0 115.805 94.206 210.006 210.006 210.006 115.805 0 210.006-94.201 210.006-210.006 0-115.8-94.201-210.006-210.006-210.006zM844.773 234.048h-76.806v76.798c0 14.141-11.455 25.596-25.596 25.596s-25.596-11.455-25.596-25.596v-102.402c0-14.141 11.455-25.596 25.596-25.596h102.402c14.135 0 25.596 11.455 25.596 25.596s-11.464 25.604-25.596 25.604z" />
<glyph unicode="&#xe924;" glyph-name="briefcase" d="M384 682.667v42.667c0 11.776 4.736 22.4 12.501 30.165s18.389 12.501 30.165 12.501h170.667c11.776 0 22.4-4.736 30.165-12.501s12.501-18.389 12.501-30.165v-42.667zM384 85.334v512h256v-512zM298.667 597.334v-512h-128c-11.776 0-22.4 4.736-30.165 12.501s-12.501 18.389-12.501 30.165v426.667c0 11.776 4.736 22.4 12.501 30.165s18.389 12.501 30.165 12.501zM725.333 682.667v42.667c0 35.328-14.379 67.413-37.504 90.496s-55.168 37.504-90.496 37.504h-170.667c-35.328 0-67.413-14.379-90.496-37.504s-37.504-55.168-37.504-90.496v-42.667h-128c-35.328 0-67.413-14.379-90.496-37.504s-37.504-55.168-37.504-90.496v-426.667c0-35.328 14.379-67.413 37.504-90.496s55.168-37.504 90.496-37.504h682.667c35.328 0 67.413 14.379 90.496 37.504s37.504 55.168 37.504 90.496v426.667c0 35.328-14.379 67.413-37.504 90.496s-55.168 37.504-90.496 37.504zM725.333 85.334v512h128c11.776 0 22.4-4.736 30.165-12.501s12.501-18.389 12.501-30.165v-426.667c0-11.776-4.736-22.4-12.501-30.165s-18.389-12.501-30.165-12.501z" />
<glyph unicode="&#xe925;" glyph-name="share" d="M811.372 292.994c-58.897 0-111.411-28.063-145.010-71.441l-281.301 157.133c6.592 18.922 10.206 39.334 10.206 60.384 0 21.262-3.615 41.462-10.419 60.598l281.087 156.917c33.382-43.588 86.118-71.867 145.226-71.867 100.784 0 183.068 82.073 183.068 183.070s-82.074 183.070-183.068 183.070c-100.995 0-183.068-82.073-183.068-183.070 0-21.263 3.612-41.675 10.416-60.598l-280.877-156.917c-33.382 43.801-86.113 71.867-145.223 71.867-100.784 0-183.070-82.073-183.070-183.070s82.286-183.071 183.283-183.071c59.11 0 111.84 28.279 145.435 72.078l281.089-157.127c-6.804-19.137-10.633-39.76-10.633-61.025 0-100.784 82.074-183.068 183.074-183.068 100.995 0 183.068 82.074 183.068 183.068 0 101.001-82.284 183.068-183.285 183.068zM811.372 893.236c69.319 0 125.662-56.346 125.662-125.661s-56.343-125.661-125.662-125.661c-69.313 0-125.662 56.346-125.662 125.661s56.559 125.661 125.662 125.661zM212.623 313.411c-69.316 0-125.661 56.343-125.661 125.658s56.346 125.661 125.661 125.661c69.316 0 125.661-56.345 125.661-125.661s-56.558-125.658-125.661-125.658zM811.372-15.52c-69.313 0-125.662 56.343-125.662 125.662 0 69.313 56.348 125.656 125.662 125.656 69.319 0 125.662-56.343 125.662-125.656 0-69.319-56.343-125.662-125.662-125.662z" />
<glyph unicode="&#xe926;" glyph-name="email" d="M732.161 14.819c6.304-20.322-4.243-41.96-24.111-49.569-74.332-28.451-143.832-38.392-234.288-38.392-244.231 0-459.031 175.080-459.031 463.447 0 300.138 217.756 560.553 550.274 560.553 258.914 0 444.273-178.018 444.273-425.193 0-214.797-120.643-350.153-279.514-350.153-69.177 0-119.184 35.301-126.523 113.295h-2.956c-45.588-75.036-111.796-113.295-189.779-113.295-95.652 0-164.759 70.619-164.759 191.258 0 179.494 132.364 342.792 344.233 342.792 38.796 0 80.744-5.801 116.049-14.887 34.093-8.774 55.754-42.004 50.122-76.754l-35.229-217.313c-14.679-86.801-4.384-126.519 36.783-127.999 63.26-1.476 142.731 79.44 142.731 248.637 0 191.274-123.594 339.855-351.644 339.855-225.095 0-422.251-176.538-422.251-457.555 0-245.698 157.407-385.474 376.628-385.474 57.058 0 116.66 9.366 167.825 27.427 12.17 4.301 25.562 3.45 37.096-2.332 11.537-5.79 20.244-16.022 24.068-28.349h0.004zM610.158 574.407c1.109 7.526-3.927 14.586-11.407 15.974-9.16 1.701-19.794 2.96-32.325 2.96-97.082 0-173.562-95.639-173.562-208.924 0-55.919 24.985-91.218 73.527-91.218 54.447 0 111.829 69.141 125.090 154.483l18.677 126.724z" />
<glyph unicode="&#xe927;" glyph-name="arrow-down" horiz-adv-x="1467" d="M1292.241 695.389c-2.129-21.289-12.773-31.933-23.418-42.578-166.054-166.054-334.237-332.108-500.291-500.291-29.805-29.805-53.222-25.547-80.898 2.129-168.183 168.183-336.366 336.366-504.549 502.42-19.16 19.16-40.449 40.449-14.902 68.125 27.676 27.676 46.836 6.387 68.125-12.773 151.152-151.152 304.432-302.304 453.455-455.584 31.933-31.933 46.836-29.805 76.64 2.129 142.636 146.894 289.53 291.659 436.424 436.424 10.644 10.644 21.289 25.547 36.191 29.805 31.933 12.773 46.836-4.258 53.222-29.805z" />
<glyph unicode="&#xe928;" glyph-name="menu" d="M128 384h768c23.552 0 42.667 19.115 42.667 42.667s-19.115 42.667-42.667 42.667h-768c-23.552 0-42.667-19.115-42.667-42.667s19.115-42.667 42.667-42.667zM128 640h768c23.552 0 42.667 19.115 42.667 42.667s-19.115 42.667-42.667 42.667h-768c-23.552 0-42.667-19.115-42.667-42.667s19.115-42.667 42.667-42.667zM128 128h768c23.552 0 42.667 19.115 42.667 42.667s-19.115 42.667-42.667 42.667h-768c-23.552 0-42.667-19.115-42.667-42.667s19.115-42.667 42.667-42.667z" />
<glyph unicode="&#xe929;" glyph-name="more-vertical" d="M597.333 426.667c0 23.552-9.6 44.928-25.003 60.331s-36.779 25.003-60.331 25.003-44.928-9.6-60.331-25.003-25.003-36.779-25.003-60.331 9.6-44.928 25.003-60.331 36.779-25.003 60.331-25.003 44.928 9.6 60.331 25.003 25.003 36.779 25.003 60.331zM597.333 725.334c0 23.552-9.6 44.928-25.003 60.331s-36.779 25.003-60.331 25.003-44.928-9.6-60.331-25.003-25.003-36.779-25.003-60.331 9.6-44.928 25.003-60.331 36.779-25.003 60.331-25.003 44.928 9.6 60.331 25.003 25.003 36.779 25.003 60.331zM597.333 128c0 23.552-9.6 44.928-25.003 60.331s-36.779 25.003-60.331 25.003-44.928-9.6-60.331-25.003-25.003-36.779-25.003-60.331 9.6-44.928 25.003-60.331 36.779-25.003 60.331-25.003 44.928 9.6 60.331 25.003 25.003 36.779 25.003 60.331z" />
<glyph unicode="&#xe984;" glyph-name="spinner" d="M1024 576h-384l143.53 143.53c-72.53 72.526-168.96 112.47-271.53 112.47s-199-39.944-271.53-112.47c-72.526-72.53-112.47-168.96-112.47-271.53s39.944-199 112.47-271.53c72.53-72.526 168.96-112.47 271.53-112.47s199 39.944 271.528 112.472c6.056 6.054 11.86 12.292 17.456 18.668l96.32-84.282c-93.846-107.166-231.664-174.858-385.304-174.858-282.77 0-512 229.23-512 512s229.23 512 512 512c141.386 0 269.368-57.326 362.016-149.984l149.984 149.984v-384z" />
<glyph unicode="&#xf005;" glyph-name="star" horiz-adv-x="951" d="M950.857 581.143c0-10.286-7.429-20-14.857-27.429l-207.429-202.286 49.143-285.714c0.571-4 0.571-7.429 0.571-11.429 0-14.857-6.857-28.571-23.429-28.571-8 0-16 2.857-22.857 6.857l-256.571 134.857-256.571-134.857c-7.429-4-14.857-6.857-22.857-6.857-16.571 0-24 13.714-24 28.571 0 4 0.571 7.429 1.143 11.429l49.143 285.714-208 202.286c-6.857 7.429-14.286 17.143-14.286 27.429 0 17.143 17.714 24 32 26.286l286.857 41.714 128.571 260c5.143 10.857 14.857 23.429 28 23.429s22.857-12.571 28-23.429l128.571-260 286.857-41.714c13.714-2.286 32-9.143 32-26.286z" />
<glyph unicode="&#xf006;" glyph-name="star-o" horiz-adv-x="951" d="M649.714 377.143l174.857 169.714-241.143 35.429-108 218.286-108-218.286-241.143-35.429 174.857-169.714-41.714-240.571 216 113.714 215.429-113.714zM950.857 581.143c0-10.286-7.429-20-14.857-27.429l-207.429-202.286 49.143-285.714c0.571-4 0.571-7.429 0.571-11.429 0-15.429-6.857-28.571-23.429-28.571-8 0-16 2.857-22.857 6.857l-256.571 134.857-256.571-134.857c-7.429-4-14.857-6.857-22.857-6.857-16.571 0-24 13.714-24 28.571 0 4 0.571 7.429 1.143 11.429l49.143 285.714-208 202.286c-6.857 7.429-14.286 17.143-14.286 27.429 0 17.143 17.714 24 32 26.286l286.857 41.714 128.571 260c5.143 10.857 14.857 23.429 28 23.429s22.857-12.571 28-23.429l128.571-260 286.857-41.714c13.714-2.286 32-9.143 32-26.286z" />
</font>
</defs>
</svg>
