<svg width="18" height="18" viewBox="0 0 18 18" fill="none" xmlns="http://www.w3.org/2000/svg">
<path d="M1.88889 0.5C1.12183 0.5 0.5 1.12183 0.5 1.88889V9C0.5 9.76706 1.12183 10.3889 1.88889 10.3889H9C9.76706 10.3889 10.3889 9.76706 10.3889 9V1.88889C10.3889 1.12183 9.76706 0.5 9 0.5H1.88889ZM13.4444 4.94444C12.6774 4.94444 12.0556 5.56627 12.0556 6.33333V9C12.0556 9.76706 12.6774 10.3889 13.4444 10.3889H16.1111C16.8782 10.3889 17.5 9.76706 17.5 9V6.33333C17.5 5.56627 16.8782 4.94444 16.1111 4.94444H13.4444ZM13.4444 12.0556C12.6774 12.0556 12.0556 12.6774 12.0556 13.4444V16.1111C12.0556 16.8782 12.6774 17.5 13.4444 17.5H16.1111C16.8782 17.5 17.5 16.8782 17.5 16.1111V13.4444C17.5 12.6774 16.8782 12.0556 16.1111 12.0556H13.4444ZM6.33333 12.0556C5.56627 12.0556 4.94444 12.6774 4.94444 13.4444V16.1111C4.94444 16.8782 5.56627 17.5 6.33333 17.5H9C9.76706 17.5 10.3889 16.8782 10.3889 16.1111V13.4444C10.3889 12.6774 9.76706 12.0556 9 12.0556H6.33333Z"/>
</svg>
