<svg width="16" height="16" viewBox="0 0 16 16" fill="none" xmlns="http://www.w3.org/2000/svg">
<g clip-path="url(#clip0)">
<path d="M14.9636 1.03649C13.5863 -0.344196 11.3466 -0.344196 9.96928 1.03649L0.812414 10.19C0.740823 10.2615 0.696504 10.3536 0.682868 10.4525L0.00445532 15.4775C-0.0159993 15.6207 0.0351373 15.7639 0.134001 15.8627C0.219229 15.9479 0.338548 15.9991 0.457867 15.9991C0.478321 15.9991 0.498776 15.9991 0.519231 15.9957L3.54652 15.5866C3.79879 15.5525 3.97607 15.3207 3.94198 15.0684C3.90788 14.8161 3.67606 14.6388 3.42379 14.6729L0.996506 15.0002L1.47037 11.4956L5.15903 15.1843C5.24425 15.2695 5.36357 15.3207 5.48289 15.3207C5.60221 15.3207 5.72153 15.2729 5.80676 15.1843L14.9636 6.03084C15.6318 5.36266 16 4.47629 16 3.53196C16 2.58764 15.6318 1.70127 14.9636 1.03649ZM10.1466 2.1615L11.6841 3.69901L3.32834 12.0547L1.79083 10.5172L10.1466 2.1615ZM5.4863 14.2093L3.98288 12.7059L12.3386 4.35015L13.842 5.85357L5.4863 14.2093ZM14.4829 5.19561L10.8045 1.51718C11.2716 1.13195 11.8545 0.920584 12.4682 0.920584C13.167 0.920584 13.8216 1.19331 14.3159 1.68423C14.8102 2.17514 15.0795 2.8331 15.0795 3.53196C15.0795 4.14901 14.8682 4.72856 14.4829 5.19561Z" fill="#18A0FB"/>
</g>
<defs>
<clipPath id="clip0">
<rect width="16" height="16" fill="#18A0FB"/>
</clipPath>
</defs>
</svg>
